<?xml version="1.0" encoding="UTF-8"?>
<svg id="Layer_1" xmlns="http://www.w3.org/2000/svg" xmlns:xlink="http://www.w3.org/1999/xlink" version="1.1" viewBox="0 0 1000 1000">
  <!-- Generator: Adobe Illustrator 29.3.1, SVG Export Plug-In . SVG Version: 2.1.0 Build 151)  -->
  <defs>
    <style>
      .st0 {
        fill: none;
      }

      .st1 {
        fill: url(#linear-gradient);
      }

      .st2 {
        clip-path: url(#clippath);
      }
    </style>
    <clipPath id="clippath">
      <path class="st0" d="M284.2,686.5h5v-26.8h-5v26.8ZM334.2,686.5h5v-27.1h-5v27.1ZM430.2,659.4v15.2c0,1.7-.2,3.2-.5,4.5-.3,1.2-.8,2.2-1.4,2.9-.6.7-1.3,1.2-2.3,1.5-.6.2-1.3.3-2.3.4-1,0-1.8-.2-2.3-.4-.9-.3-1.7-.8-2.3-1.5-.6-.7-1-1.7-1.4-2.9-.3-1.3-.5-2.8-.5-4.5v-15.2h-4.8v15.4c0,0,0,.8,0,.8.3,3,.5,5.4,2,7.3,1.1,1.2,2.4,2.1,4,2.7,1.3.5,2.9.8,4.7.9h.2s0,0,0,0c.1,0,.3,0,.4,0h0s.2,0,.2,0c1.9,0,3.4-.4,4.8-.9.2,0,.4-.2.6-.3.1,0,.3-.1.4-.2h.3c0-.1,0,5,0,5,0,1.7-.1,3.2-.5,4.5-.3,1.2-.8,2.2-1.4,2.9-.6.7-1.3,1.2-2.3,1.5-.8.2-1.7.4-2.8.4l.2,2.7c2,0,3.8-.3,5.4-.9,1.6-.6,2.9-1.5,4-2.7,1.6-1.8,1.8-4.2,2-7.3v-.8c0,0,0-15.1,0-15.1v-.4s0-15.4,0-15.4h-4.7ZM596.8,659.4v24.4h-9.4c-3.6,0-6.5-2.9-6.5-6.5v-17.9h-4.9v14.2c0,5,1.6,7.6,3,9.2,1.1,1.2,2.4,2.1,4,2.7,1.3.5,2.9.8,4.7.9h0s14.1,0,14.1,0v-27h-5ZM620,659.5c-1.7,0-3.3.4-4.6.9-1.6.6-2.9,1.5-4,2.7-1.5,1.7-3,4-3,7.4v3.3c0,3.9.9,6.7,3,9.1,1.1,1.2,2.4,2.1,4,2.7,1.3.5,2.9.8,4.6.9h.2s11.8,0,11.8,0v-2.6h-11.4c-3.6,0-6.5-2.9-6.5-6.5,0,0-.2-3-.2-4.7s.2-4.3.2-4.3c0-3.6,2.9-6.5,6.5-6.5h11.4v-2.6h-11.9ZM690.9,686.5h5v-27.1h-5v27.1ZM708.5,676.2c-.4-3.3-.6-9.3,2-12.1,1.2-1.3,2.9-2,4.7-2h2c5.2,0,6.4,5.2,6.7,7.5.2,1.8.5,5.1,0,8.1-.3,1.5-.8,2.7-1.4,3.7-1.2,1.7-3.1,2.6-5.2,2.6h-2c-5.3,0-6.5-5.4-6.7-7.8M714.8,659.4h-.1c-1.7,0-3.3.4-4.6.9-1.6.6-2.9,1.5-3.9,2.7-1.4,1.6-3,4.1-3,9v1.9c0,3.8.9,6.6,3,9,1,1.2,2.4,2.1,3.9,2.7,1.3.5,2.9.8,4.6.9h3.1c1.7,0,3.3-.4,4.6-.9,1.5-.6,2.9-1.5,3.9-2.7,2-2.4,3-5.2,3-9v-1.9c0-3.8-.9-6.6-3-9-1-1.2-2.4-2.1-3.9-2.7-1.3-.5-2.9-.8-4.6-.9h-.2s-2.8,0-2.8,0ZM298.4,659.4v27.1h5v-24.4h9.4c3.6,0,6.5,2.9,6.5,6.5v17.9h5.1v-14.2c0-3.9-.9-6.8-3-9.3-1.1-1.2-2.4-2.1-4-2.7-1.4-.5-3-.8-4.7-.9h-.2s-14.2,0-14.2,0ZM404.1,659.5c-2.1,0-4,.3-5.7.9-1.7.6-3.1,1.6-4.2,2.8-1.6,1.9-1.8,4.4-2.1,7.6v.9c0,0,0,14.8,0,14.8h4.9v-14.6c0-1.8.2-3.3.5-4.7.4-1.3.8-2.3,1.4-3,.6-.7,1.4-1.3,2.4-1.6.8-.3,1.9-.4,3.1-.4h2.1v-2.9h-2.5ZM735.2,659.4v27.1h5v-24.4h9.3c3.6,0,6.5,2.9,6.5,6.5v17.9h5.1v-14.2c0-3.9-.9-6.8-3-9.3-1.1-1.2-2.4-2.1-4-2.7-1.4-.5-3-.8-4.7-.9h-.2s-14.2,0-14.2,0ZM641.4,677.2s-.2-2.1-.2-4.2.2-4.2.2-4.2c0-3.7,3-6.6,6.7-6.6h9.5v15.1c0,3.6-3.2,6.7-7,6.7h-2.6c-3.7,0-6.7-3-6.7-6.7M647.7,659.4h-.1c-1.8.1-3.4.4-4.8.9-1.6.6-3,1.6-4.1,2.8-2.1,2.5-3.1,5.4-3.1,9.4l.2,3.4c.4,2.8,1.3,5,2.9,6.9,1.1,1.2,2.5,2.2,4.1,2.8.8.3,1.6.4,2.4.6,1.7.4,3.3.3,4.9.4,1,0,1.8,0,2.7-.2h0c.9-.2,1.8-.4,2.7-.8.7-.3,1.4-.7,1.9-1l.3-.2v2h5.1v-27.1h-15.1ZM457.6,676.2c-.4-3.4-.6-9.4,2-12.2,1.2-1.3,2.9-2,4.7-2h2c5.2,0,6.4,5.3,6.7,7.5.2,1.8.5,5.2-.1,8.2-.3,1.5-.8,2.8-1.4,3.7-1.2,1.7-3.1,2.6-5.2,2.6h-2c-5.3,0-6.5-5.5-6.7-7.8M463.9,659.4h-.1c-1.7.1-3.3.4-4.6.9-1.6.6-2.9,1.5-3.9,2.7-2.1,2.4-3,5.2-3,9.1v1.9c0,3.9.9,6.6,3,9.1,1,1.2,2.3,2.1,3.9,2.7,1.3.5,2.9.8,4.6.9h3.1c1.7,0,3.3-.4,4.6-.9,1.6-.6,2.9-1.5,3.9-2.7,2.1-2.4,3-5.2,3-9.1v-1.9c0-3.8-.9-6.6-3-9.1-1-1.2-2.4-2.1-3.9-2.7-1.3-.5-2.9-.8-4.6-.9h-.2s-2.8,0-2.8,0ZM352.1,659.1c-1.7.6-2.7,1.3-3.8,2.6-2.2,2.5-2.2,6.3,0,8.8,1.1,1.2,2.5,2.2,4.1,2.8,1.1.4,2.3.7,3.7.8h.3c1.6.2,3.4.4,4.5,1.7,1.3,1.4,1.5,2.8.8,4.1-1.6,2.8-4.7,3.1-7.5,3.1h-5.6v3.5c1,.1,8.1,0,9-.1,3.8-.4,6.5-1.6,8.3-3.7,1.4-1.6,2-3.9,1.4-6-.3-1.1-.8-2-1.4-2.8-1.1-1.3-2.5-2.2-4.1-2.8-.9-.3-2-.5-3.2-.6-2.7-.4-5.7-.8-6.4-3.9-.4-2.1,1.4-3.7,3.4-4.4.7-.2,1.6-.4,2.7-.4h5.2v-3.3c-.9,0-1.8,0-2.8,0-1,0-2,0-3.1,0-1.9,0-3.8.2-5.5.8M372.2,651.4v23.3c0,0,0,.9,0,.9.2,3,.5,5.4,2,7.3,1.1,1.2,2.4,2.1,4,2.7,1.5.6,3.4.9,5.5.9h2.1v-2.6h-1.9c-1,0-2-.2-2.9-.5-.9-.3-1.7-.8-2.3-1.5-.6-.7-1-1.7-1.4-2.9-.3-1.3-.4-2.8-.4-4.5v-11.6s7.9,0,7.9,0v-3.5h-7.9v-8h-4.7ZM670.9,651.4v23.3c0,0,0,.9,0,.9.3,3,.5,5.4,2,7.2,1.1,1.2,2.4,2.1,4,2.7,1.5.6,3.3.9,5.5.9h2.1v-2.6h-1.9c-1,0-2-.2-2.9-.5s-1.7-.8-2.3-1.5c-.6-.7-1-1.6-1.4-2.9-.3-1.3-.4-2.8-.4-4.5v-12.1s7.9,0,7.9,0v-3h-7.9v-8h-4.7ZM268,651l-13.7,27.5h-.6c0,0-13.9-27.5-13.9-27.5h-5.9v35.4h4.9v-25.4l13,25.4h2.7l13-26.2,1-1.8v28h5.2v-35.4h-5.8ZM284.2,653.5v.8c0,1.4,1.1,2.5,2.5,2.5s2.4-1.1,2.4-2.5v-.8c0-1.3-1.1-2.4-2.4-2.4s-2.5,1.1-2.5,2.4M334.2,653.5v.8c0,1.4,1.1,2.5,2.5,2.5s2.5-1.1,2.5-2.5v-.8c0-1.3-1.1-2.4-2.5-2.4s-2.5,1.1-2.5,2.4M547.7,677.4v-8.8c0-3.6,2.9-6.5,6.5-6.5h9.4v21.8h-9.4c-3.6,0-6.5-2.9-6.5-6.5M563.6,651v8.4h-9.9c-1.8.1-3.4.4-4.7.9-1.6.6-2.9,1.5-4,2.7-2.1,2.5-3,5.3-3,9.2v1.3c0,5,1.6,7.6,3,9.2,1.1,1.2,2.4,2.1,4,2.7,1.4.5,2.9.8,4.7.9h.2s14.7,0,14.7,0v-35.5h-5ZM690.9,653.5v.2c0,1.3,1.1,2.4,2.5,2.4s2.4-1.1,2.4-2.4v-.2c0-1.3-1.1-2.4-2.4-2.4s-2.5,1.1-2.5,2.4M514.6,651v35.5h23.9v-2.6h-18.9v-15h12.6v-2.7h-12.6v-12.1h18.9v-3h-23.9ZM495.1,651c-2.1,0-3.9.3-5.5.9-1.6.6-3,1.5-4,2.7-1.6,1.8-1.8,4.2-2,7.2v.9c0,0,0,23.7,0,23.7h4.7v-16.8h8v-3h-7.9v-3.7c0-1.7.1-3.2.5-4.5.3-1.2.8-2.2,1.4-2.8.6-.7,1.3-1.2,2.3-1.5.7-.2,1.6-.4,2.7-.4h.2s2.5,0,2.5,0v-2.8h-2.7ZM289.6,611.5c0,2.5,2,4.5,4.5,4.5s4.5-2,4.5-4.5-2-4.5-4.5-4.5-4.5,2-4.5,4.5M302.6,611.5c0,2.5,2,4.5,4.5,4.5s4.5-2,4.5-4.5-2-4.5-4.5-4.5-4.5,2-4.5,4.5M597.5,580.5c0-5.6,4.5-10.1,10.1-10.1h20.4v20.2h-30.5v-10.1ZM606.9,563.7c-9.8,0-17.7,7.9-17.7,17.7v16.5h47.1v-34.1h-29.4ZM651.6,563.7v36.1c0,2.2-.3,4.2-.7,5.9-.5,1.6-1.1,2.8-1.8,3.7-.7.9-1.7,1.5-2.9,1.9-1,.4-2.3.5-3.9.5h-.2l.4,4.5h.2c2.8,0,5.4-.4,7.6-1.3,2.2-.8,4.1-2.1,5.5-3.8,2.4-2.8,3.8-6.6,4.2-11.2v-36.4h-8.5ZM695.1,563.7v36.1c0,2.2-.3,4.2-.7,5.9-.5,1.6-1.1,2.8-1.8,3.7-.7.9-1.7,1.5-2.9,1.9-1,.4-2.3.5-3.9.5h-.2l.4,4.5h.1c2.8,0,5.4-.4,7.6-1.3,2.2-.8,4-2.1,5.5-3.8,2.4-2.8,3.8-6.5,4.2-11.2v-36.4h-8.5ZM722.5,580.8c0-5.7,4.6-10.4,10.4-10.4h19.9v20.2h-30.3v-9.8ZM732.2,563.7c-9.9,0-18,8-18,17.9v16.2h38.5v2c0,2.2-.2,4.2-.6,5.9-.5,1.6-1,2.8-1.8,3.7-.7.9-1.7,1.5-2.9,1.9-.4.1-.9.2-1.4.3v4.6c2-.2,3.9-.6,5.5-1.2,2.2-.8,4.1-2.1,5.5-3.8,2.4-2.8,3.8-6.5,4.2-11.2v-36.4h-29.1ZM248.3,570.9c0-.3.2-.5.5-.5h23.8s.6,0,.6,0c.4,0,.7.1,1,.2,4.9.9,8.5,5.2,8.5,10.2v9.8h-34.4v-19.7ZM531.7,545v45.6h-20.6v-27h-8.2v27h-82.2v-9.6c0-5.9,4.8-10.6,10.7-10.6h35.1v-6.7h-35.8c-10.1,0-18.2,8.2-18.2,18.2v8.8h-66.4v-45.6h-8.1v45.6h-22.9v-27h-8.2v27h-15.6v-8.2c0,0,0-.1,0-.1,0-5.8-1.8-10.4-5.4-13.6-3.2-3-7.7-4.7-13.5-5h-32.5v34.7c0,2.2-.1,4.2-.5,5.9-.4,1.6-1,2.8-1.8,3.7-.7.9-1.7,1.5-2.9,1.9-.2,0-.4,0-.6.1v4.7c1.7-.2,3.2-.5,4.6-1.1,2.2-.8,4-2.1,5.5-3.8,2.4-2.8,3.8-6.6,4.2-11.2v-.9h291.8v-52.7h-8.5ZM552.6,545c0,0-.1,0-.1.1v52.5c0,0,0,.1.1.1h8s.1,0,.1-.1v-52.5c0,0,0-.1-.1-.1h-8ZM672.9,597.8h8.2v-52.7h-8.2v52.7ZM694.9,549.5c0,2.5,2,4.5,4.5,4.5s4.5-2,4.5-4.5-2-4.5-4.5-4.5-4.5,2-4.5,4.5M492.5,549.5c0,2.5,2,4.5,4.5,4.5s4.5-2,4.5-4.5-2-4.5-4.5-4.5-4.5,2-4.5,4.5M505.5,549.5c0,2.5,2,4.5,4.5,4.5s4.5-2,4.5-4.5-2-4.5-4.5-4.5-4.5,2-4.5,4.5M603.7,549.5c0,2.5,2,4.5,4.5,4.5s4.5-2,4.5-4.5-2-4.5-4.5-4.5-4.5,2-4.5,4.5M616.7,549.5c0,2.5,2,4.5,4.5,4.5s4.5-2,4.5-4.5-2-4.5-4.5-4.5-4.5,2-4.5,4.5M494.6,466.1c0,2,.8,3.9,2.3,5.3,1.4,1.4,3.3,2.3,5.3,2.2,2,0,4-.8,5.4-2.2,1.4-1.4,2.2-3.4,2.2-5.4s-.8-4-2.2-5.4c-1.5-1.4-3.4-2.2-5.4-2.2-4,0-7.6,3.6-7.6,7.6M397.9,438.4c-4,0-7.6,3.5-7.6,7.4s.8,4,2.2,5.4c1.4,1.4,3.4,2.2,5.4,2.2,2,0,3.9-.8,5.3-2.2,1.4-1.4,2.2-3.3,2.2-5.3s-.8-3.9-2.2-5.3c-1.3-1.3-3.2-2.2-5.1-2.2s-.1,0-.2,0M599.6,444.7c0,2,.8,3.9,2.2,5.3,1.4,1.4,3.3,2.2,5.3,2.2s3.9-.8,5.3-2.2c1.4-1.4,2.2-3.3,2.2-5.3,0-2-.7-3.9-2.2-5.4-1.4-1.4-3.4-2.2-5.4-2.2-3.9,0-7.5,3.5-7.5,7.6M467.1,427.5c-4.6.6-7.7,4.8-7.1,9.3.6,4.5,4.8,7.7,9.3,7.1,1.9-.2,3.5-1.1,4.8-2.3,1.8-1.8,2.7-4.4,2.4-7-.5-4.2-4.1-7.2-8.1-7.2s-.8,0-1.2,0M528.5,433.4c-.6,4.5,2.5,8.7,7.1,9.3,2.6.4,5.2-.5,7-2.3,1.2-1.2,2.1-2.9,2.3-4.7.6-4.5-2.6-8.6-7.1-9.3-.4,0-.8,0-1.2,0-4,0-7.6,3-8.1,7.2M347.5,418.4c-5.2,2.7-7.2,9.4-4.4,14.6,2.8,5.3,9.4,7.3,14.7,4.4.9-.5,1.8-1.2,2.5-1.8,3.4-3.4,4.2-8.5,1.9-12.8-2-3.7-5.7-5.7-9.6-5.7s-3.5.4-5.1,1.3M642.7,421.6c-2.8,5.3-.8,11.9,4.4,14.7,4.3,2.3,9.4,1.5,12.8-1.9.7-.7,1.4-1.5,1.8-2.5,2.9-5.3.8-11.8-4.4-14.7-1.6-.9-3.4-1.3-5.1-1.3-3.9,0-7.6,2.1-9.5,5.7M295.1,407.3h0c-5.7,4.6-6.8,12.9-2.3,18.7,4.5,5.8,12.9,6.9,18.8,2.4.5-.3.8-.7,1.2-1,4.7-4.7,5.3-12.3,1-17.6-2.6-3.4-6.6-5.2-10.6-5.2s-5.7.9-8.1,2.7M252.9,403.7c-7.2-.1-14.2,6.6-14.1,14.1,0,3.6,1.5,7.2,4.1,9.8,2.7,2.7,6.4,4.2,10,4.1,3.7.1,7.3-1.5,9.8-4.1,2.7-2.7,4.3-6.3,4.2-9.9.1-3.7-1.5-7.2-4.2-9.9-2.5-2.5-5.9-4.1-9.5-4.1s-.2,0-.4,0M692.7,408.5h-.1c-4.4,5.8-3.4,14.2,2.5,18.8,5.4,4.3,12.9,3.7,17.6-1,.4-.4.8-.8,1-1.2,4.5-5.8,3.5-14.2-2.4-18.7-2.4-1.9-5.3-2.8-8.1-2.8s-7.9,1.8-10.5,5M738,416.7c-.1,3.7,1.5,7.2,4.1,9.8,2.7,2.7,6.3,4.3,9.9,4.2,3.7.1,7.3-1.5,9.9-4.2,2.6-2.6,4.2-6.2,4.1-9.8.1-3.7-1.4-7.3-4.1-10-2.6-2.6-6.2-4.1-9.8-4.1,0,0-.1,0-.2,0-7.4,0-14,6.9-13.9,14.1M427.8,401.3c-5.3,1.5-8.4,7-6.8,12.3,1.5,5.2,7,8.3,12.2,6.9,1.7-.6,3.1-1.4,4.3-2.6,2.5-2.5,3.6-6.1,2.5-9.7-1.2-4.4-5.2-7.2-9.5-7.2s-1.8.1-2.7.4M565,407.1c-1.5,5.3,1.6,10.7,6.9,12.2,3.6,1,7.2,0,9.7-2.5,1.2-1.2,2-2.6,2.6-4.3,1.5-5.3-1.6-10.8-6.9-12.2-.9-.3-1.9-.4-2.8-.4-4.3,0-8.3,2.8-9.5,7.2M502.2,397.3c-4.4,0-8.3,3.9-8.3,8.3,0,2.2.8,4.4,2.4,6,1.5,1.5,3.7,2.4,5.9,2.4s4.4-.8,5.9-2.4c1.6-1.6,2.4-3.7,2.4-6s-.9-4.3-2.4-5.8c-1.5-1.5-3.6-2.5-5.7-2.5s-.1,0-.2,0M385.2,381.6c-5.4,2.4-8,8.7-5.7,14.2,2.5,5.5,8.9,8,14.3,5.6,1.3-.5,2.4-1.3,3.4-2.3,3-3,4.1-7.7,2.3-12-1.8-4.1-5.8-6.5-10-6.5s-2.9.3-4.3.9M605.5,386.1c-2.4,5.4,0,11.9,5.6,14.3,4.2,1.8,9,.7,11.9-2.3,1-1,1.8-2.1,2.3-3.4,2.4-5.4,0-11.9-5.6-14.3-1.4-.6-2.8-.8-4.2-.8-4.2,0-8.2,2.4-10,6.5M464.3,371.1c-4.8,1.1-7.8,5.9-6.7,10.8,1.2,4.7,6,7.8,10.8,6.7,1.7-.4,3.2-1.3,4.3-2.3,2.1-2.2,3.2-5.3,2.5-8.4-1-4.1-4.7-6.9-8.8-6.9s-1.4,0-2.1.2M529.9,376.5c-1.2,4.8,1.8,9.7,6.6,10.8,3.1.7,6.3-.3,8.4-2.5,1.1-1.1,2-2.6,2.4-4.3,1.1-4.8-1.9-9.6-6.7-10.8-.7-.2-1.4-.2-2-.2-4.1,0-7.8,2.8-8.8,6.9M339.5,366.9c-6,3.8-7.9,11.7-4.2,17.8,3.8,6.2,11.8,8.1,17.9,4.3.9-.6,1.8-1.2,2.4-1.8,4.2-4.2,5.1-10.8,1.9-16.1-2.5-4-6.8-6.2-11.2-6.2s-4.7.6-6.8,1.9M647.5,369.9c-3.8,6.2-1.8,14.1,4.2,18,5.2,3.2,11.9,2.3,16.1-1.9.6-.6,1.3-1.4,1.8-2.4,3.8-6.2,1.8-14.2-4.3-17.9-2.1-1.3-4.4-1.9-6.7-1.9-4.4,0-8.7,2.2-11.1,6.1M291.6,359.7c-6,5-6.9,13.8-1.9,19.8,4.9,6,13.7,6.9,19.7,2h0c.4-.3.7-.6,1-.9,5.1-5.1,5.6-13.3,1-18.8-2.8-3.4-6.9-5.1-10.9-5.1s-6.3,1-8.9,3.1M692.3,360.4c-4.8,6-4,14.9,2,19.9,5.6,4.6,13.8,4,18.9-1,.3-.3.6-.6,1-1h-.1c5-6,4.1-14.9-2-19.7-2.6-2.2-5.8-3.2-8.9-3.2s-8.1,1.8-10.9,5.1M238.8,369.3c0,4,1.7,8,4.6,11,2.9,2.9,7,4.5,11.1,4.4,4.1.1,8.2-1.5,11-4.4,3-3,4.5-6.9,4.5-11.1,0-4.2-1.7-8.1-4.5-10.9-3-3-6.8-4.6-11-4.6h-.2c-8.2,0-15.5,7.6-15.5,15.7M734.9,368.1c0,4.2,1.7,8,4.6,11,2.9,2.9,6.7,4.5,10.9,4.5,4.2,0,8.2-1.5,11.1-4.5,2.9-2.9,4.5-6.9,4.4-11,.1-4.1-1.5-8.2-4.4-11-3-3-7.1-4.6-11-4.6-8.2,0-15.8,7.4-15.7,15.7M424,347.1c-5.5,2-8.3,8.2-6.3,13.7,1.9,5.4,8,8.3,13.5,6.3h0c1.5-.5,2.8-1.4,3.8-2.4,2.9-2.8,3.9-7.2,2.5-11.1-1.5-4.3-5.6-7-9.9-7s-2.4.2-3.6.6M567.4,352.3c-2,5.5.8,11.6,6.4,13.6,4,1.4,8.3.4,11.2-2.5,1.1-1.1,1.9-2.3,2.5-3.8h0c2-5.6-.9-11.6-6.3-13.6-1.2-.5-2.4-.7-3.6-.7-4.3,0-8.4,2.7-10,6.9M380.5,328.6c-6.8,3.5-9.5,11.7-6.1,18.6,3.4,6.7,11.8,9.5,18.5,6.1,1.3-.8,2.5-1.6,3.5-2.5,4.1-4.1,5.4-10.6,2.5-16-2.3-4.8-7.2-7.6-12.3-7.6s-4.2.5-6.1,1.5M606,333.7c-3.4,6.7-.7,15.1,6.1,18.4,5.4,2.8,11.9,1.6,16-2.5,1-1,1.8-2.1,2.5-3.5,3.4-6.7.7-15.1-6.1-18.5-2-1-4.2-1.5-6.2-1.5-5.1,0-9.9,2.8-12.4,7.6M335.2,316.3c-7.4,4.9-9.5,14.9-4.6,22.3,5.1,7.4,15,9.4,22.5,4.4.9-.4,1.7-1.2,2.4-1.9,5.4-5.3,6.5-13.8,2.1-20.3-3.1-4.7-8.2-7.2-13.5-7.2s-6.1.9-8.9,2.7M647.4,319.6c-4.9,7.4-2.8,17.4,4.6,22.3,6.5,4.4,14.9,3.3,20.3-2.1.7-.7,1.5-1.5,1.9-2.4,4.9-7.4,3-17.3-4.4-22.4-2.7-1.8-5.8-2.7-8.9-2.7-5.2,0-10.4,2.5-13.5,7.2M290.2,310.1c-6.8,5.7-7.6,15.8-1.9,22.7,5.8,6.7,15.9,7.5,22.8,1.8l.9-.9c5.9-5.9,6.4-15.3.9-21.9-3.2-3.7-7.7-5.6-12.2-5.6s-7.4,1.3-10.5,3.9M692.2,310.1c-5.8,6.7-5,16.9,1.7,22.7,6.6,5.5,15.9,5,21.9-.9.3-.3.6-.6.9-.9,5.7-6.8,4.9-17-1.8-22.8-3.1-2.5-6.8-3.8-10.4-3.8s-9.1,1.9-12.3,5.7M256.5,297.9c-9.2-.1-17.7,8.4-17.7,17.7-.1,4.6,1.7,9.3,5.1,12.7,3.3,3.3,7.9,5.1,12.7,5.1s9.2-1.9,12.4-5.1c3.4-3.4,5.3-8,5.1-12.7.1-4.6-1.9-9.1-5.1-12.4-3.3-3.3-7.6-5.3-12.1-5.3h-.4M748.2,297.9c-9.3,0-17.8,8.5-17.7,17.7-.1,4.6,1.9,9.1,5.3,12.5,3.3,3.2,7.8,5.2,12.4,5.1,4.6.1,9.3-1.8,12.7-5.1,3.3-3.3,5.1-7.9,5.1-12.4s-1.9-9.4-5.1-12.7c-3.3-3.3-7.7-5.1-12.2-5.1h-.5"/>
    </clipPath>
    <linearGradient id="linear-gradient" x1="-31.5" y1="1055.5" x2="-16.9" y2="1055.5" gradientTransform="translate(1380.3 38912.4) scale(36.4 -36.4)" gradientUnits="userSpaceOnUse">
      <stop offset="0" stop-color="#3b83b7"/>
      <stop offset=".3" stop-color="#3f8fa5"/>
      <stop offset="1" stop-color="#4baf78"/>
      <stop offset="1" stop-color="#4cb176"/>
    </linearGradient>
  </defs>
  <g class="st2">
    <rect class="st1" x="234" y="297.8" width="532.1" height="404.2"/>
  </g>
</svg>