<?xml version="1.0" encoding="UTF-8"?>
<svg id="Layer_1" xmlns="http://www.w3.org/2000/svg" version="1.1" viewBox="0 0 500 500">
  <!-- Generator: Adobe Illustrator 30.5.1, SVG Export Plug-In . SVG Version: 2.1.4 Build 3)  -->
  <defs>
    <style>
      .st0 {
        fill: #82c891;
      }

      .st1 {
        fill: #225c7e;
      }

      .st2 {
        fill: #5dc098;
      }

      .st3 {
        fill: #4f5353;
      }

      .st4 {
        fill: #bcdec0;
      }

      .st5 {
        fill: #33a3a3;
      }
    </style>
  </defs>
  <path class="st1" d="M205.92,168.45c-3.38,0-6.12,2.74-6.12,6.12v38.38c0,3.38,2.74,6.12,6.12,6.12s6.12-2.74,6.12-6.12v-38.38c0-3.38-2.74-6.12-6.12-6.12"/>
  <path class="st5" d="M228.21,155.77c-3.38,0-6.12,2.74-6.12,6.12v61.34c0,3.38,2.74,6.12,6.12,6.12s6.12-2.74,6.12-6.12v-61.34c0-3.38-2.74-6.12-6.12-6.12"/>
  <path class="st2" d="M250.49,146.63c-3.38,0-6.12,2.74-6.12,6.12v61.34c0,3.38,2.74,6.12,6.12,6.12s6.12-2.74,6.12-6.12v-61.34c0-3.38-2.74-6.12-6.12-6.12"/>
  <path class="st0" d="M272.78,156.97c-3.38,0-6.12,2.74-6.12,6.12v61.34c0,3.38,2.74,6.12,6.12,6.12s6.12-2.74,6.12-6.12v-61.34c0-3.38-2.74-6.12-6.12-6.12"/>
  <path class="st4" d="M295.07,176.09c-3.38,0-6.12,2.74-6.12,6.12v29.37c0,3.38,2.74,6.12,6.12,6.12s6.12-2.74,6.12-6.12v-29.37c0-3.38-2.74-6.12-6.12-6.12"/>
  <path class="st3" d="M356.51,254.55c-1.48,0-2.68,1.2-2.68,2.68v39.51c0,1.48,1.2,2.68,2.68,2.68s2.68-1.2,2.68-2.68v-39.51c0-1.48-1.2-2.68-2.68-2.68"/>
  <path class="st3" d="M191.15,284.8v-13.61c0-1.48-1.2-2.68-2.68-2.68s-2.68,1.2-2.68,2.68v13.61c0,4.42-3.6,8.01-8.01,8.01h-8.55v-20.39c0-1.48-1.2-2.68-2.68-2.68h-11.53c-7.83,0-14.21,6.37-14.21,14.21s6.37,14.21,14.21,14.21c3.35,0,6.42-1.17,8.86-3.12v.44c0,1.48,1.2,2.68,2.68,2.68h11.23c7.37,0,13.37-6,13.37-13.37M155.02,292.82c-4.88,0-8.85-3.97-8.85-8.86s3.97-8.85,8.85-8.85h8.86v8.85c0,4.88-3.97,8.86-8.86,8.86"/>
  <path class="st3" d="M346.5,284.8v-27.57c0-1.48-1.2-2.68-2.68-2.68s-2.68,1.2-2.68,2.68v27.57c0,4.42-3.6,8.01-8.01,8.01h-6.34c-1.48,0-2.68,1.2-2.68,2.68s1.2,2.68,2.68,2.68h6.34c7.37,0,13.37-6,13.37-13.37"/>
  <path class="st3" d="M325.85,271.19c0-1.48-1.2-2.68-2.68-2.68s-2.68,1.2-2.68,2.68v13.61c0,4.42-3.6,8.01-8.01,8.01h-13.97c-4.88,0-8.85-3.97-8.85-8.86s3.97-8.85,8.85-8.85,8.85,3.97,8.85,8.85c0,.39-.03.76-.07,1.13-.19,1.47.84,2.81,2.31,3,1.48.19,2.81-.85,3-2.31.08-.6.12-1.2.12-1.82,0-7.83-6.37-14.21-14.21-14.21s-14.21,6.37-14.21,14.21c0,3.35,1.17,6.42,3.12,8.86h-11.12v-35.59c0-1.48-1.2-2.68-2.68-2.68s-2.68,1.2-2.68,2.68v27.58c0,4.42-3.6,8.01-8.01,8.01h-6.41c-1.48,0-2.68,1.2-2.68,2.68s1.2,2.68,2.68,2.68h6.41c3.01,0,5.78-1.01,8.01-2.69v.02c0,1.48,1.2,2.68,2.68,2.68h38.86c7.37,0,13.37-6,13.37-13.37v-13.61Z"/>
  <path class="st3" d="M153.92,264.09c1.85,0,3.34-1.5,3.34-3.34s-1.5-3.34-3.34-3.34-3.34,1.5-3.34,3.34,1.5,3.34,3.34,3.34"/>
  <path class="st3" d="M163.12,264.09c1.85,0,3.34-1.5,3.34-3.34s-1.5-3.34-3.34-3.34-3.34,1.5-3.34,3.34,1.5,3.34,3.34,3.34"/>
  <path class="st3" d="M310.63,264.09c1.85,0,3.34-1.5,3.34-3.34s-1.5-3.34-3.34-3.34-3.34,1.5-3.34,3.34,1.5,3.34,3.34,3.34"/>
  <path class="st3" d="M319.83,264.09c1.85,0,3.34-1.5,3.34-3.34s-1.5-3.34-3.34-3.34-3.34,1.5-3.34,3.34,1.5,3.34,3.34,3.34"/>
  <path class="st3" d="M175.93,310.99c1.85,0,3.34-1.5,3.34-3.34s-1.5-3.34-3.34-3.34-3.34,1.5-3.34,3.34,1.5,3.34,3.34,3.34"/>
  <path class="st3" d="M181.78,307.65c0,1.85,1.5,3.34,3.34,3.34s3.34-1.5,3.34-3.34-1.5-3.34-3.34-3.34-3.34,1.5-3.34,3.34"/>
  <path class="st3" d="M240.2,304.31c-1.85,0-3.34,1.5-3.34,3.34s1.5,3.34,3.34,3.34,3.34-1.5,3.34-3.34-1.5-3.34-3.34-3.34"/>
  <path class="st3" d="M246.06,307.65c0,1.85,1.5,3.34,3.34,3.34s3.34-1.5,3.34-3.34-1.5-3.34-3.34-3.34-3.34,1.5-3.34,3.34"/>
  <path class="st3" d="M255.42,284.8v-13.61c0-1.48-1.2-2.68-2.68-2.68s-2.68,1.2-2.68,2.68v13.61c0,4.42-3.6,8.01-8.01,8.01h-8.7v-8.86c0-7.83-6.37-14.21-14.21-14.21s-14.21,6.37-14.21,14.21c0,.19.02.37.03.56-.01.09-.03.19-.03.28,0,4.42-3.6,8.01-8.01,8.01h-4.89c-1.48,0-2.68,1.2-2.68,2.68s1.2,2.68,2.68,2.68h4.89c4.5,0,8.48-2.24,10.9-5.66,2.6,3.43,6.7,5.66,11.32,5.66,3.35,0,6.42-1.17,8.85-3.12v.44c0,1.48,1.2,2.68,2.68,2.68h11.37c7.37,0,13.37-6,13.37-13.37M219.15,292.82c-4.88,0-8.85-3.97-8.85-8.86s3.97-8.85,8.85-8.85,8.85,3.97,8.85,8.85-3.97,8.86-8.85,8.86"/>
  <path class="st3" d="M303.44,323.39c-1.2-.3-2.44.27-3.01,1.37l-8.11,15.65-8.11-15.65c-.57-1.1-1.81-1.67-3.01-1.37-1.2.29-2.04,1.37-2.04,2.6v24.58c0,1.48,1.2,2.68,2.68,2.68s2.68-1.2,2.68-2.68v-13.6l5.43,10.49c.92,1.78,3.83,1.78,4.76,0l5.43-10.48v13.59c0,1.48,1.2,2.68,2.68,2.68s2.68-1.2,2.68-2.68v-24.58c0-1.24-.84-2.31-2.04-2.6"/>
  <path class="st3" d="M319.88,323.31c-1.48,0-2.68,1.2-2.68,2.68v24.58c0,1.48,1.2,2.68,2.68,2.68s2.68-1.2,2.68-2.68v-24.58c0-1.48-1.2-2.68-2.68-2.68"/>
  <path class="st3" d="M166.39,323.31h-22.74c-1.48,0-2.68,1.2-2.68,2.68s1.2,2.68,2.68,2.68h8.69v21.9c0,1.48,1.2,2.68,2.68,2.68s2.68-1.2,2.68-2.68v-21.9h8.69c1.48,0,2.68-1.2,2.68-2.68s-1.2-2.68-2.68-2.68"/>
  <path class="st3" d="M231.6,348.01h-14.88v-21.9c0-1.48-1.2-2.68-2.68-2.68s-2.68,1.2-2.68,2.68v24.45s0,.04,0,.06c0,.02,0,.04,0,.06,0,1.48,1.2,2.68,2.68,2.68h17.56c1.48,0,2.68-1.2,2.68-2.68s-1.2-2.68-2.68-2.68"/>
  <path class="st3" d="M349.5,325.02c-.4-1.03-1.39-1.71-2.5-1.71s-2.1.68-2.5,1.71l-9.51,24.58c-.53,1.38.15,2.93,1.53,3.47.32.12.64.18.97.18,1.07,0,2.09-.65,2.5-1.71l7.01-18.13,7.02,18.13c.53,1.38,2.09,2.07,3.46,1.53,1.38-.53,2.07-2.08,1.53-3.46l-9.51-24.58Z"/>
  <path class="st3" d="M263.66,328.67c1.48,0,2.68-1.2,2.68-2.68s-1.2-2.68-2.68-2.68h-16.91c-1.48,0-2.68,1.2-2.68,2.68,0,.06.01.12.02.18,0,.06-.02.12-.02.18v24.12s0,.03,0,.05c0,.02,0,.03,0,.05,0,1.48,1.2,2.68,2.68,2.68h16.91c1.48,0,2.68-1.2,2.68-2.68s-1.2-2.68-2.68-2.68h-14.23v-7.05h10.17c1.48,0,2.68-1.2,2.68-2.68s-1.2-2.68-2.68-2.68h-10.17v-6.81h14.23Z"/>
  <path class="st3" d="M189.48,325.14c-.4-1.03-1.39-1.71-2.5-1.71s-2.1.68-2.5,1.71l-9.51,24.58c-.53,1.38.15,2.93,1.53,3.46,1.37.54,2.93-.15,3.46-1.53l7.01-18.12,7.01,18.12c.41,1.06,1.42,1.71,2.5,1.71.32,0,.65-.06.97-.18,1.38-.53,2.06-2.08,1.53-3.46l-9.51-24.58Z"/>
</svg>