<?xml version="1.0" encoding="UTF-8"?>
<svg id="Layer_1" xmlns="http://www.w3.org/2000/svg" version="1.1" viewBox="0 0 772.42 740.85">
  <!-- Generator: Adobe Illustrator 30.5.1, SVG Export Plug-In . SVG Version: 2.1.4 Build 3)  -->
  <defs>
    <style>
      .st0 {
        fill: #003e82;
      }
    </style>
  </defs>
  <g>
    <g>
      <path class="st0" d="M648.2,424.81c3.09-12.59-4.1-23.53-7.66-35.16l-1.22-.04c-.61,1.55-4.58,11.1-4.58,11.1,2.8,9.15,8.52,18.31,9.23,28.01-6.04-8.01-13.64-15.05-20.89-21.45,0,0-1.38,0-1.38,0-1.22,3.48-4.18,11.1-4.18,11.1,6.49,5.72,13.63,12.26,19.61,19.58-7.51,6.02-15.12,11.69-24.03,15.16,0,0-4.56,8.53-5.68,10.81,0,0,.88,1.41.88,1.33.04-.02.09-.04.13-.05h0s41.56-1.75,41.56-1.75l4.87-11.86c-1.46-7.26-4.63-13.86-8.77-19.91.86-2.27,1.56-4.59,2.12-6.86ZM645.92,451.3c-2.93,0-5.46.39-15.96,1.09,2.42-1.95,4.76-4,7.01-6.15,1.27-1.21,2.42-2.55,3.47-3.97,2.08,2.9,3.94,5.91,5.48,9.03Z"/>
      <path class="st0" d="M659.01,388.86l-.93-.28c-.77,2.33-4,11.86-4,11.86,4.8,20.53,10.34,41.71,14.88,62.72l1.57-.08s3.36-11.51,3.36-11.51c-4.54-21.01-11.27-41.51-14.88-62.72Z"/>
      <path class="st0" d="M415.6,388.58c-.77,2.33-4,11.86-4,11.86,4.8,20.53,10.34,41.71,14.88,62.72l1.57-.08s3.36-11.51,3.36-11.51c-4.54-21.01-11.27-41.51-14.88-62.72l-.93-.28Z"/>
      <path class="st0" d="M592.96,425.25c-.55,1.72-3.52,12.05-3.52,12.05,1.73,3.16,3.06,9.77,3.69,13.9-21.52-2.25-28.37-28.06-32.54-37.74.02.04-1.24-.19-1.24-.19-1.18,3.69-3.98,11.9-3.98,11.9,2.63,6.11,5.77,14.68,10.86,22.07-44.35,14.23-33.74-1.69-32.74-5.84l-1.75-.08c-7.77,21.93,1.38,29.6,33.89,17.2,1.07-.41,1.64-1.59,1.76-2.73.15-1.35.23-3.99.31-6.54,5.43,7.11,12.91,12.72,23.89,13.25,0,0,11.18-17.61,2.66-37.36l-1.28.09Z"/>
      <path class="st0" d="M215.98,425.25c-.55,1.72-3.52,12.05-3.52,12.05,1.7,3.11,3.01,9.55,3.66,13.7-19.3.83-23.35-8.56-21.45-13.55l-1.02-.4c-2.57,5.81-3.5,10.33-3.26,13.87-11.58.42-26.58,1.28-35.88-6.88-7.94-6.97-10.43-19.07-13.01-29.05-.58-.03-.55-.03-1.13-.07-1.3,3.42-4.18,10.26-4.18,10.26.61,2.26,1.2,4.66,1.83,7.11-.97.78-2.03,1.71-2.57,2.01-3.66,2-7.62,3.41-11.27,5.42-6.72,3.71-10.68,8.87-13.49,15.45h-.02l-4.09,10.34,1.3,1.59c9.76.03,21.24.45,31.67-3.69,2.53-1,4.32-3.3,4.78-5.98l1.06-6.25c1.24,1.85,2.66,3.54,4.32,5,9.5,8.33,24.95,7.26,36.62,6.85,1.97-.07,3.32-7.71,4.21-10.83,1.38,8.38,10.14,10.49,19.09,10.89,2.3.1,4.44-1.17,5.45-3.24,1.63-3.34,3.89-8,3.81-7.99,0,0,3.6-11.47-1.63-26.69l-1.28.09ZM111.39,455.17c1.83-3.98,8.08-7.51,11.9-9.44,3.93-1.98,8.3-3.38,11.9-5.95,1.48-1.05,2.73-2.45,3.74-4.03,1.25,4.49,2.77,8.98,4.96,12.96-10.78,5.5-22.61,6.49-32.5,6.46Z"/>
      <path class="st0" d="M404.06,390.62c-.54-.06-.51-.05-1.05-.11l-4.23,9.93c2.97,14.98,5.91,29.97,8.81,44.97.39,2.04.93,4.16,1.45,6.32-17.47.03-19.98-10.28-22.43-21.19l-.8-.08-4,12.21s.74,3.89,3.37,8.31c-10.84.36-16.2-8.64-14.33-13.56l-1.02-.4c-2.61,5.74-3.37,10.28-2.97,13.87-20.52,1.36-24.82-8.35-22.87-13.47l-1.02-.4c-2.57,5.81-3.5,10.34-3.25,13.87-9.75.79-20.79.29-27.4-6.16h-1.59c-5.55,6.56-50.35,12.52-66.41,3.54-9.67-5.41-11.03-17.73-15.59-57.77l-.93-.42c-1.02,2.32-3.98,10.25-3.98,10.25,5.04,40.98,6.24,52.8,16.57,59.55,13.19,8.63,55.15,3.71,68.56-2.99,2.39,2.32,7.61,5.81,21.46,6.08,3.53.07,6.74-2.03,8.04-5.31l1.68-4.24c2.1,7.68,11.1,9.43,19.98,9.69,1.62.05,3.11-.87,3.82-2.32,1.05-2.15,2.58-5.28,3.49-7.21,2.15,6.85,9.07,9.25,13.11,9.56,1,.08,1.94-.5,2.38-1.4,1.02-2.08,2.92-5.97,3.98-8.2,4.16,5.52,11.48,10.88,24.11,9.88,1.63-.13,4.89-10.35,4.87-11.86-.1-5.77-2.26-12.11-3.34-17.74-2.78-14.41-5.61-28.81-8.46-43.21Z"/>
      <path class="st0" d="M590.86,420.05l3.71-8.93c-3.91-1.94-6.52-3.18-8.95-4.33-.67.27-1.02.4-1.69.67l-3.72,8.96c2.54,1.19,5.08,2.39,8.94,4.29.68-.26,1.03-.4,1.71-.66Z"/>
      <path class="st0" d="M305.2,467.96l-3.72,8.96c2.54,1.19,5.08,2.39,8.94,4.29.68-.26,1.03-.4,1.71-.66l3.71-8.93c-3.91-1.94-6.52-3.18-8.95-4.33-.67.27-1.02.41-1.69.67Z"/>
      <path class="st0" d="M204.14,468.69l-3.72,8.96c2.54,1.19,5.08,2.39,8.94,4.29.68-.26,1.03-.4,1.71-.66l3.71-8.93c-3.91-1.94-6.52-3.18-8.95-4.33-.67.27-1.02.4-1.69.67Z"/>
      <path class="st0" d="M355.13,425.43c1.05-1.13,2.2-2.19,3.45-3.1,2.5-1.81,5.55-3.27,8.67-3.48,7.2-.47,10.33,4.02,9.94,10.67l1.1.46c.93-2.16,3.66-7.14,3.56-10.63-.24-8.31-4.62-15.02-13.62-11.78-8.59,3.09-13.09,11.28-16.17,19.3l1.44.78s.78-1.32,1.62-2.23Z"/>
      <path class="st0" d="M489.25,453.24l.75-4.43c4.76,7.32,11.66,13.16,22.86,13.7,0,0,11.18-17.61,2.66-37.36l-1.28.09c-.55,1.72-3.52,12.05-3.52,12.05,1.73,3.16,3.06,9.76,3.69,13.9-21.33-2.26-25.52-28.06-29.69-37.74.02.04-1.24-.19-1.24-.19-1.18,3.69-3.98,11.9-3.98,11.9.65,1.5,1.28,3.15,1.94,4.9-.2.15-.38.28-.52.36-3.66,2-7.62,3.41-11.27,5.42-6.72,3.71-10.68,8.87-13.49,15.45,0,0-.02,0-.02,0l-4.09,10.34,1.3,1.59c9.09.03,19.67.39,29.09-2.37,3.54-1.04,6.2-3.98,6.82-7.61ZM456.87,451.3c1.83-3.98,8.08-7.51,11.9-9.44,3.93-1.98,8.3-3.38,11.9-5.95.81-.58,1.54-1.26,2.22-2.02,1.5,3.94,3.2,8.13,5.39,12.06-10.59,5.3-21.63,5.38-31.41,5.35Z"/>
      <path class="st0" d="M457.73,415.22c1.39-2.43,2.49-4.8,3.66-7.55,4.67,2.34,12.46,6.77,17.44,4.56,3.21-1.42,5.32-8.59,6.37-11.54l-1.16-.63c-3.8,7.32-14.54.42-19.52-2.01,0,0-3.19,6.7-3.88,8.15-1.53-.61-8.18-3.89-9.4-4.49l-4.15,9c3.09,1.53,6.22,3.55,9.61,4.91l1.04-.39Z"/>
      <path class="st0" d="M504.06,466.44s-3.19,6.7-3.88,8.15c-1.53-.61-8.18-3.89-9.4-4.49l-4.15,9c3.09,1.53,6.22,3.55,9.61,4.91l1.04-.39c1.39-2.43,2.49-4.8,3.66-7.55,4.67,2.34,12.46,6.77,17.44,4.56,3.21-1.42,5.32-8.59,6.37-11.54l-1.16-.63c-3.8,7.32-14.54.42-19.52-2.01Z"/>
      <path class="st0" d="M117.82,417.05c1.39-2.43,2.49-4.8,3.66-7.55,4.67,2.34,12.46,6.77,17.44,4.56,3.21-1.42,5.32-8.59,6.37-11.54l-1.16-.63c-3.8,7.32-14.54.42-19.52-2.01,0,0-3.19,6.7-3.88,8.15-1.53-.61-8.18-3.89-9.4-4.49l-4.15,9c3.09,1.53,6.22,3.55,9.61,4.91l1.04-.39Z"/>
      <path class="st0" d="M170.45,469.2s-3.19,6.7-3.88,8.15c-1.53-.61-8.18-3.89-9.4-4.49l-4.15,9c3.09,1.53,6.22,3.55,9.61,4.91l1.04-.39c1.39-2.43,2.49-4.8,3.66-7.55,4.67,2.34,12.46,6.77,17.44,4.56,3.21-1.42,5.32-8.59,6.37-11.54l-1.16-.63c-3.8,7.32-14.54.42-19.52-2.01Z"/>
      <path class="st0" d="M613.17,405.49c-.31.78-.56,1.61-.8,2.27-.17.45-.72,2.76-.57,2.6,3.42-3.55,8.03-5.62,11.33-9.29.96-1.07,1.45-2.89,1.93-4.22.15-.43.78-2.78.57-2.6-3.26,2.75-7.58,5.35-12,3.79-.2-.07-.42-.21-.65-.36,1.44-.86,3.06-1.3,4.77-1.42.65-.04,1.51-2.86,1.71-3.37.11-.27,1.16-3.64,1.06-3.63-6.63.43-10.4,6.68-11.69,12.67-.57,2.64,2.01,3.47,4.33,3.55Z"/>
      <path class="st0" d="M263.02,422.48c.26-2.14,3.25-2.83,4.9-3.54,3.63-1.56,7.49-2.62,11.3-3.63,8.52-2.26,52-14.58,60.43-17.17l-.05-2.91c-.2-.16-.29-.23-.49-.38-2.91.72-52.91,15.15-60.87,17.3-3.82,1.03-7.71,2.11-11.3,3.79-1.76.83-4.24,2.01-4.51,4.19-.09.76-.09,1.57-.02,2.33l.61.02Z"/>
    </g>
    <g>
      <path class="st0" d="M118.71,275.2c2.64-4.59,4.72-9.08,6.92-14.3,8.83,4.43,23.6,12.81,33.02,8.63,6.07-2.69,10.06-16.26,12.06-21.86l-2.2-1.19c-7.2,13.85-27.54.8-36.96-3.8,0,0-6.03,12.69-7.35,15.42-2.89-1.15-15.49-7.36-17.8-8.5l-7.86,17.04c5.85,2.91,11.78,6.73,18.2,9.3l1.97-.75Z"/>
      <path class="st0" d="M392.06,265.5c5.85,2.91,11.78,6.73,18.2,9.3l1.97-.75c2.64-4.59,4.72-9.08,6.92-14.3l-1.44-2.79c-2.89-1.15-15.49-7.36-17.8-8.5l-7.86,17.04Z"/>
      <path class="st0" d="M510.88,235.7c2.64-4.59,4.72-9.08,6.92-14.3l-1.44-2.79c-2.89-1.15-15.49-7.36-17.8-8.5l-7.86,17.04c5.85,2.91,11.78,6.73,18.2,9.3l1.97-.75Z"/>
      <path class="st0" d="M351.77,244.95c.53-4.28,6.49-5.67,9.8-7.09,7.27-3.12,82.35-24.49,99.21-29.68l-.1-5.82c-.41-.31-.58-.45-.99-.76-5.81,1.43-92.9,26.89-100.08,30.26-3.51,1.65-8.49,4.02-9.02,8.38-.19,1.53-.17,3.14-.03,4.67l1.22.04Z"/>
      <path class="st0" d="M613.07,279.98c-5.27-20.24-28.12-36.47-44.79-23.79-9.65,7.34-14.73,17.89-17.24,32.93-5.56,33.25,26.09,23.28,41.79,15.13,4.81-2.64,7.97-12.51,7.76-19.24,3.64,5.57,5.92,12.34,5.83,19.97,0,.03,0,.06,0,.1-10.47,14.55-45.93,37.36-81.6,24.72l-2.21,5.1c12.24,7.62,40.46,21,40.46,21,50.2-30.68,52.94-61.51,49.99-75.9ZM558.22,277.3c8.49-13.74,29.15-9.3,40.47,5.08-12.03,6.95-46.01,16.81-40.47-5.08Z"/>
      <path class="st0" d="M267.05,300.34c-2.48-2.22-3.42-4.58-2.58-6.71l-2.1-.57c-50.88,29.47-48.16-12.23-75.69-60.37.03.05-1.87-.23-1.87-.23-1.64,5.6-5.98,18.55-5.98,18.55,1.95,1.8,5.85,8.83,10.14,17.21-15.57,13.44-59.54,25.52-65.37,41.57-.02,0-8.84,22.25-8.84,22.25l2.46,3.01c24.37,3.24,61.53-1.08,79.35-6.31,6.7-1.97,11.73-7.52,12.91-14.41l.34-4.89c9.15,14.71,22.55,25.15,48.78,7.11,0,0,17.89,18.76,52.6,12.1,19.96-42.4-17.79-84.13-44.14-28.3ZM126.48,311.86c4.84-11.08,49.72-17.79,65.51-37.64,4.7,9.43,9.43,19.36,12.27,25.07-21.53,15.2-57.08,13.74-77.78,12.57ZM310.97,308.39c-19.44,1.77-33.84-1.54-41.23-6.07,11.61-23.76,44.41-11.09,41.23,6.07Z"/>
      <path class="st0" d="M657.14,248.39s-1.87-.23-1.87-.23c-1.64,5.6-5.98,18.55-5.98,18.55,16.23,14.51,20.97,28.31,20.97,28.31-9.22,20.49-50.07,42.68-75.05,38.81l-1.86,4.55,42.11,13.34c11.78-7.29,38.43-36.35,38.43-60.61,0-11.47-4.1-26.92-16.74-42.73Z"/>
      <path class="st0" d="M520.31,248.39s-1.87-.23-1.87-.23c-1.64,5.6-5.98,18.55-5.98,18.55,16.23,14.51,20.97,28.31,20.97,28.31-9.22,20.49-50.07,42.68-75.05,38.81l-1.86,4.55,42.11,13.34c11.78-7.29,38.43-36.35,38.43-60.61,0-11.47-4.1-26.92-16.74-42.73Z"/>
      <path class="st0" d="M482.26,301.24c3.36-15.9-2.13-35.01-8.84-48.89l-1.93.13c-.83,2.58-7.17,21.48-7.17,21.48,7.55,8.37,9.07,20.6,9.29,27-172.73,26.59-126.47-17.47-151.12-104.18.02.05-1.87-.28-1.87-.28-1.77,5.55-5.99,17.93-5.99,17.93,21,88.39-12.6,138.3,155.17,106.69l12.45-19.88Z"/>
    </g>
  </g>
  <g>
    <g>
      <path class="st0" d="M256.01,538.78v-1.9l3.7-3.37c2.71-2.48,4.33-4.3,4.33-6.53,0-1.87-1.14-3.42-3.52-3.42-1.9,0-3.64.96-4.43,2.94l-.4-.2c1.19-3.59,3.62-5.54,6.73-5.54,3.44,0,5.06,2.38,5.06,4.4,0,3.16-3.87,5.62-7.62,8.98l-1.77,1.59h5.82c1.8,0,2.63-.56,3.32-1.77h.46l-.43,4.81h-11.24Z"/>
      <path class="st0" d="M276.96,520.76c10.02,0,10.02,18.32,0,18.32s-10.05-18.32,0-18.32ZM276.96,521.31c-4.71,0-4.71,17.18,0,17.18s4.71-17.18,0-17.18Z"/>
      <path class="st0" d="M285.96,538.78v-1.9l3.7-3.37c2.71-2.48,4.33-4.3,4.33-6.53,0-1.87-1.14-3.42-3.52-3.42-1.9,0-3.64.96-4.43,2.94l-.4-.2c1.19-3.59,3.62-5.54,6.73-5.54,3.44,0,5.06,2.38,5.06,4.4,0,3.16-3.87,5.62-7.62,8.98l-1.77,1.59h5.82c1.8,0,2.63-.56,3.32-1.77h.46l-.43,4.81h-11.24Z"/>
      <path class="st0" d="M299.72,531.46c0-5.52,4.13-9.69,9.84-10.76l.2.48c-3.21,1.37-5.67,4-6.12,8.1.94-1.14,2.28-1.7,3.95-1.7,3.57,0,5.24,2.58,5.24,5.31,0,3.01-2.02,6.17-6.33,6.17-4.53,0-6.78-3.54-6.78-7.62ZM309.19,534.02c0-2.68-.99-5.57-3.04-5.57-1.7,0-2.43,1.97-2.43,4.18,0,2.63,1.06,5.87,3.06,5.87,1.64,0,2.4-2.13,2.4-4.48Z"/>
      <path class="st0" d="M320.44,530.98v-1.26h8.02v1.26h-8.02Z"/>
      <path class="st0" d="M336.51,538.78v-.58c1.11-.08,1.77-.43,1.77-1.09v-12.78l-2.15.4v-.58l5.19-3.34h.76v16.3c0,.66.66,1.01,1.77,1.09v.58h-7.34Z"/>
      <path class="st0" d="M349.71,538.78v-.58c1.11-.08,1.77-.43,1.77-1.09v-3.11h-7.47v-.89l9.21-12.04h2.05v11.21h2.51v1.72h-2.51v3.11c0,.66.66,1.01,1.77,1.09v.58h-7.34ZM345.36,532.27h6.12v-7.97l-6.12,7.97Z"/>
      <path class="st0" d="M364.56,538.78v-.58c1.11-.08,1.77-.43,1.77-1.09v-3.11h-7.47v-.89l9.21-12.04h2.05v11.21h2.51v1.72h-2.51v3.11c0,.66.66,1.01,1.77,1.09v.58h-7.34ZM360.21,532.27h6.12v-7.97l-6.12,7.97Z"/>
      <path class="st0" d="M374.15,534.83c0-1.77,1.29-3.57,3.72-4.45-2.33-1.06-3.31-2.58-3.31-4.45,0-2.96,2.48-5.19,6.55-5.19,3.37,0,5.8,1.52,5.8,3.59,0,1.7-1.67,2.99-3.69,3.82,3.04.94,4.71,2.88,4.71,5.34,0,3.24-2.88,5.59-7.29,5.59-3.67,0-6.48-1.64-6.48-4.25ZM384.7,534.73c0-1.67-.96-2.68-3.37-3.34l-2.89-.84c-1.19.76-1.47,2.18-1.47,3.52,0,3.19,1.52,4.43,3.64,4.43,2.4,0,4.07-1.54,4.07-3.77ZM382.58,527.97c1.21-.66,1.57-2.25,1.57-3.44,0-2.05-1.04-3.21-3.19-3.21s-3.52,1.19-3.52,2.91c0,1.54,1.04,2.63,2.73,3.09l2.4.66Z"/>
    </g>
    <g>
      <path class="st0" d="M467.2,519.45c.99.46,1.98.93,3.47,1.67l.67-.26,1.44-3.47c-1.52-.75-2.53-1.24-3.48-1.68l-.66.26-1.45,3.48h0Z"/>
      <path class="st0" d="M492.05,540.74c-1.58,2.1-4.59-.64-6.02-1.66,0,0-1.35,1.94-1.65,2.35-.45-.27-2.36-1.65-2.71-1.91l-1.78,2.61c.89.64,1.76,1.44,2.76,2.05l.35-.07c.57-.69,1.04-1.37,1.55-2.18,1.34.98,3.55,2.78,5.23,2.35,1.08-.28,2.12-2.42,2.61-3.29l-.33-.26Z"/>
      <path class="st0" d="M403.16,523.67c-9.22,23.52,60.76,20.15,71.3,11.71,7.52-12.28-6.66-16-9.5-2.75-1.91,10.36,22.16,6.88,20.1-3.72-.06-.38-.59,1.13.03,2.36,1.44,3.61,5.22,6.52,8.2,2.48.09.14-1.15.14-1.05.28,3,3.95,11.59,4.5,15.83,4.22,13.68-.9,10.04-20.5-2.95-12.28-4.04,2.48-9.79,8.27-10.73,12.5l.89.06c3.06-6.89,18.23-16.97,19.46-5.24l.95-1.57c-4.47,2.56-18.17,3.11-20.86-2.11l-.35-.08c-4.12,5.87-8.31-2.38-9.36-6.28h-.16c-.68,1.33-.95,1.77-1.49,3.11.27.4,1,3.19,1.13,3.55.09.25-.21-2.02-.18-1.78-.83,6.19-17.12,7.65-17.9,1.84-.05-.77.43-1.62-.53.84-1.11,2.84-.74,1.57-.34,1.1,2.74-4.9,9.4-3.8,9.13,2.14.41-1.02.81-2.03,1.22-3.05-12.11,7.99-71.15,11.43-72.39-7.29l-.47-.04Z"/>
    </g>
  </g>
</svg>