<?xml version="1.0" encoding="UTF-8"?>
<svg id="Layer_1" xmlns="http://www.w3.org/2000/svg" version="1.1" viewBox="0 0 500 500">
  <!-- Generator: Adobe Illustrator 30.5.1, SVG Export Plug-In . SVG Version: 2.1.4 Build 3)  -->
  <defs>
    <style>
      .st0 {
        fill: #003d83;
      }
    </style>
  </defs>
  <path class="st0" d="M268.59,195.35s-2.47,5.2-3.01,6.32c-1.19-.47-6.35-3.02-7.29-3.48l-3.22,6.98c2.4,1.19,4.83,2.76,7.46,3.81l.81-.31c1.08-1.88,1.94-3.72,2.84-5.86,3.62,1.81,9.67,5.25,13.53,3.54,2.49-1.1,4.13-6.67,4.94-8.96l-.9-.49c-2.95,5.68-11.29.33-15.15-1.56Z"/>
  <path class="st0" d="M297.28,233.36l.81-.31c1.08-1.88,1.94-3.72,2.84-5.86,3.62,1.81,9.67,5.25,13.53,3.54,2.49-1.1,4.13-6.67,4.94-8.96l-.9-.49c-2.95,5.68-11.29.33-15.15-1.56,0,0-2.47,5.2-3.01,6.32-1.19-.47-6.35-3.02-7.29-3.48l-3.22,6.98c2.4,1.19,4.83,2.76,7.46,3.81Z"/>
  <path class="st0" d="M233.61,143.6c1.08-1.88,2.12-4.61,3.03-6.75-3.46-1.41-7.13-3.27-8.07-3.74l-3.22,6.98c2.4,1.19,4.83,2.76,7.46,3.81l.81-.31Z"/>
  <path class="st0" d="M299.43,222.53c1.08-1.88,2.12-4.61,3.03-6.75-3.46-1.41-7.13-3.27-8.07-3.74l-3.22,6.98c2.4,1.19,4.83,2.76,7.46,3.81l.81-.31Z"/>
  <path class="st0" d="M349.89,266.5s-2.47,5.2-3.01,6.32c-1.19-.47-6.35-3.02-7.29-3.48l-3.22,6.98c2.4,1.19,4.83,2.76,7.46,3.81l.81-.31c1.08-1.88,1.94-3.72,2.84-5.86,3.62,1.81,9.67,5.25,13.53,3.54,2.49-1.1,4.13-6.67,4.94-8.96l-.9-.49c-2.95,5.68-11.29.33-15.15-1.56Z"/>
  <path class="st0" d="M298.17,351.76s-2.47,5.2-3.01,6.32c-1.19-.47-6.35-3.02-7.29-3.48l-3.22,6.98c2.4,1.19,4.83,2.76,7.46,3.81l.81-.31c1.08-1.88,1.94-3.72,2.84-5.86,3.62,1.81,9.67,5.25,13.53,3.54,2.49-1.1,4.13-6.67,4.94-8.96l-.9-.49c-2.95,5.68-11.29.33-15.15-1.56Z"/>
  <path class="st0" d="M144.25,309.33c1.08-1.88,1.94-3.72,2.84-5.86,3.62,1.81,9.67,5.25,13.53,3.54,2.49-1.1,4.13-6.67,4.94-8.96l-.9-.49c-2.95,5.68-11.29.33-15.15-1.56,0,0-2.47,5.2-3.01,6.32-1.19-.47-6.35-3.02-7.29-3.48l-3.22,6.98c2.4,1.19,4.83,2.76,7.46,3.81l.81-.31Z"/>
  <path class="st0" d="M220.41,321.11h1.17c0-14.01,52.08-21.72,88.05-30.36l-.23-2.8c-35.85,8.64-88.98,15.18-88.98,33.16Z"/>
  <path class="st0" d="M363.46,313.64c-.42.05-.86.14-1.32.26-17.17,2.73-24.63-4.23-32.89-4.69-8.98-.55-14.08,12.93-10.32,28.75-7.7,1.34-13.15-3.01-13.15-19.64h-1.17c0,5.32.32,9.73.91,13.36-13.45,4.06-72.68,26.5-106.15,9.88-26.87-13.32-19.07-32.71-28.57-44.19-.43.12-.49.14-.92.26l-.77,5.2c12.38,12.61,5.51,34.64,29.8,46.67,36.67,18.22,93.21-5.37,107.81-9.46l-.09-3.47c2.77,9.28,8.19,11,14.81,9.09.77,1.86,1.66,3.73,2.69,5.59l1.36-.84c-.98-1.78-1.85-3.52-2.6-5.21,12.32-4.37,28.25-19.73,39.1-22.36.19-.03.37-.05.56-.08v-.04c.4-.08.79-.15,1.17-.19l-.23-8.88ZM329.25,318.07c6.85.43,11.13,3.12,17.46,4.51-8.79,6.02-18.68,13.19-26.54,15.1-3.21-12.01.34-20.14,9.07-19.61Z"/>
  <path class="st0" d="M140.49,343.25l-.03-.02c-1.82,19.58,29.57,13.72,29.57.2,0-29.09-28.42-31.18-29.54-.18ZM169.02,343.43c0,1.57-26.7,8.64-27.54,1.32.54-22.84,27.54-20.86,27.54-1.32Z"/>
  <path class="st0" d="M357.18,228.22c-.49.13-.55.15-1.04.28l-.73,4.56c4.32,4.85,6.03,7.44,6.7,10.29-20.17,18.68-26.45,1.22-37.87-11.48-.48.14-.55.16-1.02.31l-.75,4.85c3.25,3.51,6.05,7.32,8.77,10.74-6.5,3.98-19.16,4.82-19.16-5.14h-1.17c0,13.31,6.89,22.89,22.07,11.44l-.47-4.75c7.76,9.41,15.32,14.69,31.3-.63l-.13-1.14c-.12-6.83-1.51-13.19-6.51-19.35Z"/>
  <path class="st0" d="M228.72,182.83c12.19,7.43,33.47,7.5,48.04-4.53.33-.18.75-.54,1.3-1.12,3.26-3.44,3.39-7.71,2.58-11.36,5.38,9.19,6.91,20.15,11.98,20.88,4.98.71,7.59-4.36,7.99-13.8,1.58,5.6,4.72,9.89,8.8,12.99-1.21,2.63-1.93,5.21-1.93,7.62h1.17c0-2.15.81-4.38,2.17-6.61,18.43,12.22,52.88,2.56,52.88-20.02,0-8.24-5.72-22.81-28.15-8.89-4.83,3-15.73,12.05-22.44,21.6-7.32-2.57-12.46-7.42-12.46-15.3h-1.17c-.74,13.98-3.23,15.9-7.26,15.7-6-.3-5.7-16.75-16.21-27.5l-.93,6.31c4.82,4.78,5.8,7.82,3.13,10.41-10.08,9.58-28.12,11.72-41.24,9.14,5.13-3.38,8.62-7.17,9.7-11.13,4.32-15.76-16.65-29.07-25.88-6.8-2.63,6.34-1.8,11.91,1.29,16.35-32.39,8.53-86.54,10.62-84.79-14.63l-1.3-.03c-2.61,37.65,60.55,35.4,92.74,20.72ZM336.25,165.68c17.87-10.74,26.28-4.32,26.28,1.88,0,10.15-28.11,17.54-46.44,12.91,6.04-5.95,14.45-11.39,20.16-14.79ZM221.95,163.45c5.56-11.21,25.34-5.01,23.55,1.43-.98,3.5-7.96,7.21-17.96,10.33-5.35-2.81-8-6.89-5.59-11.76Z"/>
  <path class="st0" d="M209.47,235.77v.49c3.22-.36,6.42-.1,9.13-1.79,1.59-.99,3.43-2.23,4.81-3.76,1.32,1.18,2.58,2.01,2.43,2.75l.33.17c.66-1.92-.3-3.32-1.56-4.53.27-.45.49-.92.65-1.42.64-2,.47-4.88-1.24-6.31-2.04-1.71-2.76,1.01-3.19,2.65-.61,2.36.21,4.11,1.36,5.45-1.44,1.27-3.13,2.4-4.33,3.08-3.62,2.06-8.39,3.21-8.39,3.21ZM225.01,224.84c.18,1-.47,2.17-1.48,3.3-1.26-1.09-2.46-2.1-2.42-3.32.05-1.72,3.07-2.2,3.9.02Z"/>
  <path class="st0" d="M177.25,165.07c-2.39.85-4.27,1.3-4.27,1.3v.57c3.74-.41,7.46-.12,10.61-2.08,1.85-1.15,3.98-2.59,5.59-4.37,1.54,1.38,3,2.33,2.83,3.2l.38.2c.77-2.23-.35-3.85-1.82-5.27.31-.53.57-1.08.75-1.65.74-2.32.55-5.68-1.44-7.34-2.37-1.99-3.21,1.17-3.71,3.08-.71,2.75.24,4.77,1.58,6.34-1.51,1.33-3.25,2.52-4.59,3.33.43-2.2-.05-4.87-1.64-6.52-1.59-1.66-4.28.66-4.48,4.32l.81.13c.47-3.29,4.33-1.78,4.84-.42.42,2.34-2.26,4-5.43,5.18ZM191.05,153.66c.21,1.17-.54,2.52-1.71,3.84-1.47-1.27-2.86-2.44-2.82-3.86.06-2,3.57-2.56,4.53.02Z"/>
  <path class="st0" d="M224.92,243.01c4.87-.2,1.98-6.75,1.98-6.75l-.47.27s1.31,3.79-1.78,4.13-2.45-2.99-2.45-2.99l-.74-.4c-11.22,7.52-8.55,3.26-8.23,1.31l-1.07-.37c-1.26,9.78,8.15,4.31,9.3.34,0,0-1.08,4.65,3.46,4.47Z"/>
  <path class="st0" d="M158.55,283.78c8.71-.88,8.6-6.83,16.54-7.72l.06-1.61c-13.23,1.02-38.08,1.61-37.68-2.45.34-3.43,15.12-5.47,23.88-15.04,17.16,10.74,49.11,22.58,130.87,2.6l-.12-4.47c3.51,6.96,10.85,6.44,19.74,2.37l-.47-8.17c-10.86,5.02-20.32,3.97-20.32-6.66h-1.17c0,3.41.3,6.25.85,8.59-74.77,18.08-106.92,8.74-124.93-1.17,1.66-3.99,2.36-8.85,1.52-14.85-12.61.7-23.45-3.68-31.4,3.31l.05.02s0,0,0,0l.47,8.17c6.99-2.87,11.51.95,19.05,6.3-9.55,3.47-21.87,5.3-20.84,19.05.74,9.88,10.59,13.05,23.89,11.71ZM165.95,244.14c-.43,1.84-1.34,3.31-2.58,4.53-3.25-1.92-6.02-3.82-8.51-5.49,2.58.33,6.16,1.07,11.09.96Z"/>
</svg>