<?xml version="1.0" encoding="UTF-8"?>
<svg id="Layer_1" xmlns="http://www.w3.org/2000/svg" version="1.1" viewBox="422.045 422.045 422.045 422.045">
  <!-- Generator: Adobe Illustrator 30.5.1, SVG Export Plug-In . SVG Version: 2.1.4 Build 3)  -->
  <defs>
    <style>
      .st0 {
        fill: #fd5c3d;
      }

      .st1 {
        fill: #83e6d6;
      }

      .st2 {
        fill: #f4e8d8;
      }

      .st3 {
        fill: #fcb705;
      }

      .st4 {
        fill: teal;
      }
    </style>
  </defs>
  <rect class="st4" x="0" y="0" width="422.1" height="422.1"/>
  <rect class="st0" x="0" y="422.14" width="422.1" height="422.1" transform="translate(-422.14 844.23) rotate(-90)"/>
  <g>
    <rect class="st3" x="422.1" y="422.19" width="421.99" height="421.99" transform="translate(-.0923 1266.2776) rotate(-90)"/>
    <path class="st2" d="M695.65,634.02c0-1.36-.05-2.7-.14-4.04l144.92-10.86-.22-2.98-144.94,10.86c-.23-2.14-.55-4.25-.98-6.32l141.73-32.35-.66-2.91-141.73,32.35c-.53-2.08-1.16-4.11-1.88-6.11l135.33-53.11-1.09-2.78-135.32,53.11c-.82-1.98-1.74-3.91-2.74-5.78l125.86-72.67-1.49-2.59-125.84,72.65c-1.1-1.84-2.28-3.62-3.54-5.34l113.54-90.55-1.86-2.33-113.51,90.52c-1.35-1.67-2.78-3.27-4.28-4.8l98.67-106.34-2.19-2.03-98.62,106.29c-1.58-1.46-3.23-2.85-4.95-4.16l81.59-119.67-2.47-1.68-81.54,119.6c-1.78-1.23-3.62-2.37-5.53-3.43l62.72-130.23-2.69-1.3-62.68,130.15c-1.95-.96-3.96-1.84-6.01-2.61l42.51-137.81-2.85-.88-42.48,137.71c-2.08-.67-4.21-1.25-6.38-1.71l21.44-142.26-2.95-.44-21.43,142.15c-2.17-.36-4.38-.62-6.61-.76v-143.49h-2.98v143.37c-.42,0-.83-.03-1.25-.03-1.84,0-3.66.1-5.46.24l-21.33-141.48-2.95.44,21.31,141.35c-2.26.29-4.49.7-6.68,1.21l-42.05-136.31-2.85.88,42.01,136.18c-2.21.63-4.37,1.37-6.48,2.22l-61.7-128.13-2.69,1.3,61.65,128.01c-2.1.96-4.15,2.03-6.13,3.2l-79.87-117.15-2.47,1.68,79.8,117.05c-1.95,1.28-3.83,2.65-5.63,4.12l-96.16-103.64-2.19,2.03,96.09,103.55c-1.74,1.57-3.41,3.22-4.97,4.97l-110.24-87.91-1.86,2.33,110.15,87.84c-1.5,1.82-2.89,3.74-4.18,5.72l-121.81-70.33-1.49,2.59,121.72,70.28c-1.21,2.04-2.3,4.15-3.28,6.33l-130.64-51.27-1.09,2.78,130.56,51.24c-.88,2.21-1.64,4.48-2.28,6.8l-136.57-31.17-.66,2.91,136.51,31.16c-.53,2.32-.93,4.69-1.2,7.1l-139.49-10.45-.22,2.98,139.45,10.45c-.1,1.47-.17,2.95-.17,4.44,0,.93.03,1.86.07,2.78l-139.36,10.44.22,2.98,139.33-10.44c.21,2.43.55,4.82,1.01,7.17l-136.16,31.08.66,2.91,136.15-31.07c.59,2.36,1.29,4.67,2.13,6.93l-129.99,51.02,1.09,2.78,129.99-51.02c.95,2.23,2.03,4.4,3.2,6.5l-121,69.86,1.49,2.59,121.03-69.87c1.28,2.05,2.67,4.02,4.16,5.91l-109.34,87.2,1.86,2.33,109.38-87.23c1.57,1.82,3.24,3.55,4.99,5.19l-95.25,102.65,2.19,2.03,95.3-102.7c1.82,1.55,3.72,3,5.7,4.35l-79.01,115.89,2.47,1.68,79.06-115.96c2.02,1.24,4.12,2.36,6.28,3.38l-60.99,126.64,2.69,1.3,61.03-126.72c2.17.9,4.4,1.68,6.68,2.35l-41.53,134.64,2.85.88,41.56-134.75c2.26.55,4.56.98,6.91,1.29l-21.06,139.71,2.95.44,21.08-139.83c1.88.16,3.78.26,5.71.26.42,0,.84-.02,1.25-.03v141.7h2.98v-141.82c2.32-.15,4.61-.42,6.86-.8l21.18,140.52,2.95-.44-21.2-140.64c2.25-.49,4.45-1.1,6.6-1.81l42.01,136.2,2.85-.88-42.05-136.32c2.12-.81,4.19-1.73,6.2-2.76l62.03,128.81,2.69-1.3-62.09-128.92c1.95-1.11,3.84-2.31,5.66-3.61l80.77,118.47,2.47-1.68-80.84-118.58c1.75-1.37,3.43-2.82,5.03-4.36l97.8,105.4,2.19-2.03-97.88-105.49c1.52-1.59,2.95-3.26,4.3-5l112.7,89.88,1.86-2.33-112.79-89.94c1.26-1.78,2.43-3.62,3.51-5.53l125.12,72.24,1.49-2.59-125.2-72.28c.98-1.93,1.86-3.91,2.65-5.94l134.75,52.89,1.09-2.78-134.83-52.92c.68-2.03,1.27-4.11,1.75-6.22l141.37,32.27.66-2.91-141.43-32.28c.38-2.09.66-4.22.83-6.37l144.79,10.85.22-2.98-144.84-10.85c.03-.79.06-1.58.06-2.37Z"/>
  </g>
  <g>
    <g>
      <path class="st1" d="M422.1,182.78c-52.77,0-52.77,43.11-105.53,43.11-52.77,0-52.77-43.11-105.53-43.11-52.76,0-52.76,43.11-105.52,43.11-52.76,0-52.76-43.11-105.51-43.11v52.2s422.1-.05,422.1-.05v-52.15Z"/>
      <path class="st1" d="M211.03,276.34c-52.76,0-52.76,43.11-105.52,43.11-52.76,0-52.76-43.11-105.51-43.11v52.2s422.1-.05,422.1-.05v-52.15c-52.77,0-52.77,43.11-105.53,43.11-52.77,0-52.77-43.11-105.53-43.11Z"/>
      <path class="st1" d="M211.03,369.89c-52.76,0-52.76,43.11-105.52,43.11-52.76,0-52.76-43.11-105.51-43.11v52.2s422.1-.05,422.1-.05v-52.15c-52.77,0-52.77,43.11-105.53,43.11-52.77,0-52.77-43.11-105.53-43.11Z"/>
    </g>
    <circle class="st1" cx="107.26" cy="100.4" r="44.61" transform="translate(-15.48 19.66) rotate(-9.77)"/>
  </g>
  <g>
    <polygon class="st2" points="392 422.14 422.1 844.23 422.1 422.14 392 422.14"/>
    <polygon class="st2" points="340.13 426.87 320.26 430.39 422.1 844.23 359.99 423.35 340.13 426.87"/>
    <polygon class="st2" points="270.41 445.66 251.47 452.6 422.1 844.23 289.35 438.73 270.41 445.66"/>
    <polygon class="st2" points="205.04 476.34 187.6 486.48 422.1 844.23 222.48 466.2 205.04 476.34"/>
    <polygon class="st2" points="146.04 517.97 130.63 531 422.1 844.23 161.44 504.94 146.04 517.97"/>
    <polygon class="st2" points="95.21 569.26 82.32 584.77 422.1 844.23 108.1 553.74 95.21 569.26"/>
    <polygon class="st2" points="54.12 628.63 44.14 646.16 422.1 844.23 64.1 611.1 54.12 628.63"/>
    <polygon class="st2" points="24.03 694.28 17.26 713.28 422.1 844.23 30.79 675.27 24.03 694.28"/>
    <polygon class="st2" points="5.86 764.16 2.52 784.06 422.1 844.23 9.21 744.27 5.86 764.16"/>
    <polygon class="st2" points="0 844.23 .26 844.23 422.1 844.23 0 815.98 0 844.23"/>
  </g>
</svg>