<?xml version="1.0" encoding="UTF-8"?>
<svg id="Layer_1" xmlns="http://www.w3.org/2000/svg" version="1.1" viewBox="0 0 844.09 844.23">
  <!-- Generator: Adobe Illustrator 30.5.1, SVG Export Plug-In . SVG Version: 2.1.4 Build 3)  -->
  <defs>
    <style>
      .st0 {
        fill: #003f87;
      }
    </style>
  </defs>
  <g>
    <g>
      <path class="st0" d="M679.02,489.23l-1.35-.04c-.68,1.71-5.05,12.26-5.05,12.26,3.22,10.52,9.96,21.05,10.27,32.25.01.51-.02,1.02-.06,1.53-1.78,2.05-3.52,4.04-5.71,5.8-8.91,7.19-17.82,14.12-28.39,18.24,0,0-5.03,9.42-6.27,11.93,0,0,.97,1.55.97,1.47,11.75-4.58,22.36-12.12,31.65-20.97,6.43-6.12,10.31-15.15,12.4-23.65,3.42-13.89-4.52-25.97-8.45-38.81Z"/>
      <path class="st0" d="M693.96,501.14c5.3,22.66,11.41,46.04,16.42,69.23l1.73-.08s3.71-12.71,3.71-12.71c-5.01-23.19-12.44-45.82-16.42-69.23l-1.03-.3c-.85,2.57-4.41,13.09-4.41,13.09h0Z"/>
      <path class="st0" d="M426.32,501.14c5.3,22.66,11.41,46.04,16.42,69.23l1.73-.08s3.71-12.71,3.71-12.71c-5.01-23.19-12.44-45.82-16.42-69.23l-1.03-.3c-.85,2.57-4.41,13.09-4.41,13.09h0Z"/>
      <path class="st0" d="M694.82,557.58c-4.06-20.25-20.22-35.79-35.08-48.9,0,0-1.52-.01-1.52-.01-1.35,3.84-4.61,12.25-4.61,12.25,11.28,9.95,24.34,22.11,31.35,36.36-4.51,0-8.16.84-36.01,2.26l-5.38,13.07,45.88-1.93,5.37-13.09Z"/>
      <path class="st0" d="M622.61,541.82c2.79,5.1,4.63,18.31,4.52,19.28.34-.2,2.13-3.76,2.13-3.76-25.81-.61-33.73-30.76-38.49-41.83.02.04-1.37-.21-1.37-.21-1.3,4.07-4.39,13.14-4.39,13.14,6.06,14.07,14.55,39.98,39.97,41.22,0,0,12.34-19.43,2.93-41.24l-1.41.1c-.61,1.89-3.89,13.3-3.89,13.3h0Z"/>
      <path class="st0" d="M245.15,541.82c2.79,5.1,4.63,18.31,4.52,19.28.34-.2,2.13-3.76,2.13-3.76-25.81-.61-24.98-.68.44.55,0,0,3.97-12.66-1.79-29.46l-1.41.1c-.61,1.89-3.89,13.3-3.89,13.3h0Z"/>
      <path class="st0" d="M535.72,541.82c2.79,5.1,4.63,18.31,4.52,19.28.34-.2,2.13-3.76,2.13-3.76-25.81-.61-30.58-30.76-35.35-41.83.02.04-1.37-.21-1.37-.21-1.3,4.07-4.39,13.14-4.39,13.14,6.06,14.07,11.4,39.98,36.82,41.22,0,0,12.34-19.43,2.93-41.24l-1.41.1c-.61,1.89-3.89,13.3-3.89,13.3h0Z"/>
      <path class="st0" d="M412.17,501.14c3.27,16.54,6.52,33.09,9.72,49.64,1.2,6.22,3.58,13.22,3.69,19.59l5.37-13.09c-26.11,3.18-29.19-9.45-32.22-22.9l-.88-.09-4.42,13.48s4.76,25.07,32.22,22.9c1.8-.14,5.4-11.42,5.37-13.09-.11-6.37-2.49-13.37-3.69-19.59-3.07-15.91-6.19-31.8-9.33-47.7-.6-.06-.56-.06-1.16-.12l-4.66,10.97h0Z"/>
      <path class="st0" d="M398.96,556.81c-13.19,1.53-19.81-9.14-17.64-14.83l-1.13-.44c-10.07,22.09,4.79,28.28,11.81,28.83,1.11.09,2.14-.55,2.63-1.54,1.64-3.34,5.35-10.95,5.24-10.94l-.92-1.07Z"/>
      <path class="st0" d="M377.48,556.81c-23.14,1.72-27.98-9.14-25.81-14.83l-1.13-.44c-10.74,24.27,4.25,28.37,18.93,28.79,1.78.05,3.43-.96,4.21-2.56,1.79-3.66,4.82-9.89,4.72-9.88l-.92-1.07Z"/>
      <path class="st0" d="M251.32,556.81c-23.14,1.72-27.98-9.14-25.81-14.83l-1.13-.44c-10.43,23.56,3.4,28.12,17.64,28.75,2.54.11,4.9-1.29,6.02-3.58,1.8-3.69,4.3-8.83,4.21-8.82l-.92-1.07Z"/>
      <path class="st0" d="M348.57,556.71c-11.13,1.05-24.2.81-31.86-6.66h-1.75c-6.12,7.24-25.06,8.69-34.65,3.9-10.95-5.46-12.18-19.57-17.21-63.77l-1.03-.46c-1.13,2.57-4.4,11.32-4.4,11.32,5.56,45.23,6.82,58.38,18.29,65.73,8.54,5.47,29.65,3.17,39.91-5.06l-4.98-.41c1.63,1.04,4.31,8.45,25.79,8.88,3.89.08,7.44-2.24,8.87-5.86l3.01-7.61h0Z"/>
      <path class="st0" d="M600.32,551.72c-52.82,17.58-40.59-.68-39.47-5.36l-1.93-.09c-8.57,24.21,1.53,32.67,37.41,18.98,1.18-.45,1.8-1.75,1.94-3.01.37-3.39.38-14.1.75-14.29l1.31,3.76Z"/>
      <path class="st0" d="M612.43,518.78c2.81,1.32,5.61,2.63,9.86,4.73.75-.29,1.14-.44,1.89-.73l4.09-9.86c-4.31-2.14-7.2-3.51-9.88-4.78-.74.29-1.13.45-1.86.74l-4.1,9.89h0Z"/>
      <path class="st0" d="M304.77,585.56c2.81,1.32,5.61,2.63,9.86,4.73.75-.29,1.14-.44,1.89-.73l4.09-9.86c-4.31-2.14-7.2-3.51-9.88-4.78-.74.29-1.13.45-1.86.74l-4.1,9.89h0Z"/>
      <path class="st0" d="M231.86,586.36c2.81,1.32,5.61,2.63,9.86,4.73.75-.29,1.14-.44,1.89-.73l4.09-9.86c-4.31-2.14-7.2-3.51-9.88-4.78-.74.29-1.13.45-1.86.74l-4.1,9.89h0Z"/>
      <path class="st0" d="M363.99,528.72c1.16-1.25,2.43-2.41,3.81-3.42,2.76-2,6.12-3.61,9.57-3.84,7.95-.52,11.4,4.43,10.98,11.78l1.21.51c1.02-2.39,4.04-7.88,3.93-11.73-.26-9.17-5.1-16.58-15.03-13-9.48,3.41-14.45,12.45-17.85,21.31l1.59.86s.86-1.45,1.79-2.46Z"/>
      <path class="st0" d="M476.28,557.28c2.02-4.39,8.92-8.29,13.14-10.42,4.33-2.19,9.16-3.73,13.13-6.57,5.9-4.22,8.74-13.23,6.2-19.95.56,1.48-3.89,5.53-3.06,7.73.4,1.07.57,2.19.87,3.26-1.24.87-2.96,2.48-3.73,2.9-4.04,2.21-8.41,3.76-12.44,5.99-7.42,4.09-11.79,9.79-14.89,17.05,0,0-.02,0-.03,0l-4.52,11.41,1.43,1.75c10.03.03,21.72.43,32.11-2.62,3.91-1.15,6.84-4.39,7.53-8.4l1.61-9.49c-12.49,7.29-25.72,7.38-37.35,7.34Z"/>
      <path class="st0" d="M133.59,561.54c2.02-4.39,8.92-8.29,13.14-10.42,4.33-2.19,9.16-3.73,13.13-6.57,5.9-4.22,8.74-13.23,6.2-19.95.56,1.48-3.89,5.53-3.06,7.73.4,1.07.57,2.19.87,3.26-1.24.87-2.96,2.48-3.73,2.9-4.04,2.21-8.41,3.76-12.44,5.99-7.42,4.09-11.79,9.79-14.89,17.05h-.03l-4.52,11.41,1.43,1.75c10.77.04,23.45.49,34.96-4.07,2.79-1.11,4.77-3.64,5.28-6.6l1.85-10.88c-12.5,7.18-26.56,8.43-38.19,8.39Z"/>
      <path class="st0" d="M221.61,556.81c-12.88.45-29.94,1.64-40.43-7.56-8.77-7.69-11.52-21.05-14.36-32.06-.64-.04-.61-.04-1.25-.07-1.44,3.77-4.62,11.32-4.62,11.32,3.07,11.38,5.58,26.02,14.92,34.21,10.48,9.2,27.54,8.01,40.43,7.56,2.73-.1,4.38-13.37,5.3-13.4h0Z"/>
      <path class="st0" d="M506.27,500.72c-4.2,8.08-16.05.47-21.55-2.22,0,0-3.52,7.4-4.29,8.99-1.69-.67-9.03-4.29-10.37-4.96l-4.58,9.93c3.41,1.69,6.87,3.92,10.61,5.42l1.15-.44c1.54-2.68,2.75-5.29,4.04-8.33,5.15,2.58,13.76,7.47,19.25,5.03,3.54-1.57,5.87-9.48,7.03-12.74l-1.28-.69Z"/>
      <path class="st0" d="M549.92,576.21c-4.2,8.08-16.05.47-21.55-2.22,0,0-3.52,7.4-4.29,8.99-1.69-.67-9.03-4.29-10.37-4.96l-4.58,9.93c3.41,1.69,6.87,3.92,10.61,5.42l1.15-.44c1.54-2.68,2.75-5.29,4.04-8.33,5.15,2.58,13.76,7.47,19.25,5.03,3.54-1.57,5.87-9.48,7.03-12.74l-1.28-.69Z"/>
      <path class="st0" d="M169.72,502.74c-4.2,8.08-16.05.47-21.55-2.22,0,0-3.52,7.4-4.29,8.99-1.69-.67-9.03-4.29-10.37-4.96l-4.58,9.93c3.41,1.69,6.87,3.92,10.61,5.42l1.15-.44c1.54-2.68,2.75-5.29,4.04-8.33,5.15,2.58,13.76,7.47,19.25,5.03,3.54-1.57,5.87-9.48,7.03-12.74l-1.28-.69Z"/>
      <path class="st0" d="M220.32,579.26c-4.2,8.08-16.05.47-21.55-2.22,0,0-3.52,7.4-4.29,8.99-1.69-.67-9.03-4.29-10.37-4.96l-4.58,9.93c3.41,1.69,6.87,3.92,10.61,5.42l1.15-.44c1.54-2.68,2.75-5.29,4.04-8.33,5.15,2.58,13.76,7.47,19.25,5.03,3.54-1.57,5.87-9.48,7.03-12.74l-1.28-.69Z"/>
      <path class="st0" d="M656.93,488.81c-7.32.48-11.48,7.38-12.9,13.98-.72,3.34,3.1,4.05,5.86,3.91,3.84-.2,7.09-2.47,9.92-4.86.92-2.51,1.84-5.02,2.76-7.53-3.65,4.05-8.74,6.33-12.51,10.25-1.08,1.12-1.61,3.22-2.13,4.66-.18.5-.8,3.05-.63,2.87,3.77-3.92,8.86-6.2,12.51-10.25,1.06-1.18,1.6-3.19,2.13-4.66.17-.47.86-3.07.63-2.87-3.6,3.04-8.37,5.9-13.24,4.18-.62-.22-1.48-1.04-2.08-1.12-2.13,3.66-2.53,4.61-1.18,2.85.4-.45.84-.87,1.3-1.26,1.88-1.53,4.11-2.27,6.51-2.42.72-.05,1.66-3.16,1.89-3.72.12-.29,1.28-4.01,1.17-4.01h0Z"/>
    </g>
  </g>
  <g>
    <g>
      <path class="st0" d="M268.17,649.22v-2.24l4.37-3.98c3.2-2.93,5.11-5.08,5.11-7.72,0-2.21-1.35-4.04-4.16-4.04-2.24,0-4.31,1.14-5.23,3.47l-.48-.24c1.41-4.25,4.28-6.55,7.96-6.55,4.07,0,5.98,2.81,5.98,5.2,0,3.74-4.58,6.64-9,10.62l-2.09,1.88h6.88c2.12,0,3.11-.66,3.92-2.09h.54l-.51,5.68h-13.28Z"/>
      <path class="st0" d="M292.93,627.92c11.84,0,11.84,21.65,0,21.65s-11.87-21.65,0-21.65ZM292.93,628.58c-5.56,0-5.56,20.31,0,20.31s5.56-20.31,0-20.31Z"/>
      <path class="st0" d="M303.57,649.22v-2.24l4.37-3.98c3.2-2.93,5.11-5.08,5.11-7.72,0-2.21-1.35-4.04-4.16-4.04-2.24,0-4.31,1.14-5.23,3.47l-.48-.24c1.41-4.25,4.28-6.55,7.96-6.55,4.07,0,5.98,2.81,5.98,5.2,0,3.74-4.58,6.64-9,10.62l-2.09,1.88h6.88c2.12,0,3.11-.66,3.92-2.09h.54l-.51,5.68h-13.28Z"/>
      <path class="st0" d="M319.84,640.57c0-6.52,4.87-11.45,11.63-12.71l.24.57c-3.8,1.61-6.7,4.72-7.24,9.57,1.11-1.35,2.69-2,4.67-2,4.22,0,6.19,3.05,6.19,6.28,0,3.56-2.39,7.3-7.48,7.3-5.35,0-8.02-4.19-8.02-9ZM331.02,643.59c0-3.17-1.17-6.58-3.59-6.58-2,0-2.87,2.33-2.87,4.93,0,3.11,1.26,6.94,3.62,6.94,1.94,0,2.84-2.51,2.84-5.29Z"/>
      <path class="st0" d="M344.32,640v-1.49h9.48v1.49h-9.48Z"/>
      <path class="st0" d="M363.31,649.22v-.69c1.32-.09,2.09-.51,2.09-1.29v-15.1l-2.54.48v-.69l6.13-3.95h.9v19.26c0,.78.78,1.2,2.09,1.29v.69h-8.67Z"/>
      <path class="st0" d="M378.91,649.22v-.69c1.32-.09,2.09-.51,2.09-1.29v-3.68h-8.82v-1.05l10.89-14.23h2.42v13.25h2.96v2.03h-2.96v3.68c0,.78.78,1.2,2.09,1.29v.69h-8.67ZM373.77,641.53h7.24v-9.42l-7.24,9.42Z"/>
      <path class="st0" d="M396.46,649.22v-.69c1.32-.09,2.09-.51,2.09-1.29v-3.68h-8.82v-1.05l10.89-14.23h2.42v13.25h2.96v2.03h-2.96v3.68c0,.78.78,1.2,2.09,1.29v.69h-8.67ZM391.32,641.53h7.24v-9.42l-7.24,9.42Z"/>
      <path class="st0" d="M407.79,644.55c0-2.09,1.53-4.22,4.4-5.26-2.75-1.26-3.92-3.05-3.92-5.26,0-3.5,2.93-6.13,7.75-6.13,3.98,0,6.85,1.8,6.85,4.25,0,2-1.97,3.53-4.37,4.52,3.59,1.11,5.56,3.41,5.56,6.31,0,3.83-3.41,6.61-8.61,6.61-4.34,0-7.66-1.94-7.66-5.02ZM420.27,644.43c0-1.97-1.14-3.17-3.98-3.95l-3.41-.99c-1.41.9-1.73,2.57-1.73,4.16,0,3.77,1.79,5.23,4.31,5.23,2.84,0,4.82-1.83,4.82-4.46ZM417.75,636.45c1.44-.78,1.85-2.66,1.85-4.07,0-2.42-1.23-3.8-3.77-3.8s-4.16,1.41-4.16,3.44c0,1.82,1.23,3.11,3.23,3.65l2.84.78Z"/>
    </g>
    <g>
      <path class="st0" d="M517.76,626.38c1.17.55,2.33,1.1,4.1,1.97l.79-.3,1.7-4.1c-1.79-.89-2.99-1.46-4.11-1.99l-.78.31-1.71,4.12h0Z"/>
      <path class="st0" d="M547.12,651.54c-1.87,2.48-5.42-.75-7.12-1.96,0,0-1.6,2.29-1.95,2.78-.53-.32-2.79-1.95-3.21-2.25l-2.1,3.08c1.05.76,2.09,1.71,3.26,2.42l.41-.08c.67-.81,1.22-1.62,1.83-2.57,1.58,1.16,4.2,3.29,6.18,2.78,1.28-.33,2.51-2.85,3.08-3.89l-.39-.31Z"/>
      <path class="st0" d="M442.08,631.36c-10.9,27.8,71.81,23.81,84.26,13.84,8.88-14.52-7.87-18.91-11.23-3.25-2.26,12.25,26.19,8.13,23.75-4.4-.07-.45-.7,1.33.03,2.79,1.71,4.26,6.17,7.71,9.69,2.93.11.17-1.36.17-1.24.33,3.54,4.67,13.69,5.32,18.71,4.99,16.17-1.06,11.86-24.23-3.48-14.52-4.77,2.93-11.57,9.77-12.68,14.77l1.06.07c3.62-8.15,21.55-20.05,23-6.19l1.12-1.85c-5.29,3.02-21.47,3.67-24.65-2.49l-.42-.1c-4.86,6.94-9.83-2.82-11.06-7.42h-.19c-.8,1.57-1.13,2.09-1.76,3.67.32.47,1.18,3.77,1.34,4.2.11.3-.25-2.38-.21-2.1-.98,7.32-20.23,9.04-21.15,2.18-.06-.91.51-1.92-.63,1-1.31,3.36-.87,1.85-.41,1.3,3.24-5.79,11.11-4.49,10.79,2.53.48-1.2.96-2.4,1.44-3.6-14.31,9.45-84.08,13.51-85.55-8.62l-.55-.05Z"/>
    </g>
  </g>
</svg>