<?xml version="1.0" encoding="UTF-8"?>
<svg id="Layer_1" xmlns="http://www.w3.org/2000/svg" xmlns:xlink="http://www.w3.org/1999/xlink" version="1.1" viewBox="0 0 1010.53 1642.01">
  <!-- Generator: Adobe Illustrator 30.5.1, SVG Export Plug-In . SVG Version: 2.1.4 Build 3)  -->
  <defs>
    <style>
      .st0 {
        fill: none;
      }

      .st1 {
        fill: #f5e9d9;
      }

      .st2 {
        fill: #ff5b3c;
      }

      .st3 {
        fill: #ffb900;
      }

      .st4 {
        fill: #26bfab;
      }

      .st5 {
        fill: #0068a1;
      }

      .st6 {
        fill: #ff9f9d;
      }

      .st7 {
        fill: #85e6d7;
      }

      .st8 {
        fill: teal;
      }

      .st9 {
        clip-path: url(#clippath);
      }
    </style>
    <clipPath id="clippath">
      <rect class="st0" x="-315.73" y="315.75" width="1641.99" height="1010.53" transform="translate(-315.7452 1326.2739) rotate(-90)"/>
    </clipPath>
  </defs>
  <rect class="st1" x="-315.73" y="315.75" width="1641.99" height="1010.53" transform="translate(-315.7452 1326.2739) rotate(-90)"/>
  <g>
    <rect class="st3" x="505.09" width="505.37" height="505.37"/>
    <rect class="st8" y=".57" width="504.8" height="504.8" transform="translate(505.37 .57) rotate(90)"/>
    <rect class="st5" x="533.05" y="477.61" width="450.37" height="504.46" transform="translate(1488.0672 -28.3938) rotate(90)"/>
    <rect class="st6" x="27.6" y="477.05" width="450.37" height="505.57" transform="translate(982.62 477.05) rotate(90)"/>
  </g>
  <g class="st9">
    <g>
      <g>
        <path class="st4" d="M758.31,1587.87v-31.27c-31.63,0-31.63,25.85-63.27,25.85s-31.63-25.85-63.27-25.85-31.63,25.85-63.26,25.85-31.63-25.85-63.26-25.85h0c-31.63,0-31.63,25.85-63.27,25.85s-31.63-25.85-63.27-25.85-31.63,25.85-63.26,25.85-31.63-25.85-63.26-25.85h0c-31.63,0-31.63,25.85-63.27,25.85s-31.63-25.85-63.27-25.85-31.63,25.85-63.26,25.85-31.63-25.85-63.26-25.85v31.3l253.05-.03v.03l253.05-.03v.03l253.05-.03Z"/>
        <path class="st4" d="M948.1,1582.45c-31.63,0-31.63-25.85-63.27-25.85s-31.63,25.85-63.26,25.85-31.63-25.85-63.26-25.85v31.3l253.05-.03v-31.27c-31.63,0-31.63,25.85-63.27,25.85Z"/>
      </g>
      <g>
        <path class="st4" d="M758.31,1531.78v-31.27c-31.63,0-31.63,25.85-63.27,25.85s-31.63-25.85-63.27-25.85-31.63,25.85-63.26,25.85-31.63-25.85-63.26-25.85h0c-31.63,0-31.63,25.85-63.27,25.85s-31.63-25.85-63.27-25.85-31.63,25.85-63.26,25.85-31.63-25.85-63.26-25.85h0c-31.63,0-31.63,25.85-63.27,25.85s-31.63-25.85-63.27-25.85-31.63,25.85-63.26,25.85-31.63-25.85-63.26-25.85v31.3l253.05-.03v.03l253.05-.03v.03l253.05-.03Z"/>
        <path class="st4" d="M948.1,1526.36c-31.63,0-31.63-25.85-63.27-25.85s-31.63,25.85-63.26,25.85-31.63-25.85-63.26-25.85v31.3l253.05-.03v-31.27c-31.63,0-31.63,25.85-63.27,25.85Z"/>
      </g>
    </g>
  </g>
  <g>
    <g>
      <g>
        <path class="st1" d="M956.89,249.21c-56.48,0-56.48,46.15-112.96,46.15s-56.48-46.15-112.96-46.15-56.47,46.15-112.95,46.15-56.47-46.15-112.94-46.15v55.88l451.81-.05v-55.82Z"/>
        <path class="st1" d="M730.97,349.35c-56.47,0-56.47,46.15-112.95,46.15s-56.47-46.15-112.94-46.15v55.88l451.81-.05v-55.82c-56.48,0-56.48,46.15-112.96,46.15s-56.48-46.15-112.96-46.15Z"/>
        <path class="st1" d="M730.97,449.5c-56.47,0-56.47,46.15-112.95,46.15s-56.47-46.15-112.94-46.15v55.88l451.81-.05v-55.82c-56.48,0-56.48,46.15-112.96,46.15s-56.48-46.15-112.96-46.15Z"/>
      </g>
      <circle class="st1" cx="619.9" cy="161.03" r="47.75"/>
    </g>
    <path class="st3" d="M276.97,346.96c1.45,0,2.88-.06,4.31-.14l11.59,154.68,3.18-.24-11.59-154.7c2.28-.24,4.53-.59,6.74-1.05l34.53,151.28,3.11-.71-34.53-151.28c2.22-.57,4.39-1.24,6.52-2.01l56.69,144.45,2.97-1.16-56.69-144.44c2.11-.88,4.17-1.85,6.17-2.92l77.56,134.34,2.76-1.59-77.55-134.32c1.96-1.17,3.87-2.43,5.7-3.78l96.65,121.2,2.49-1.99-96.62-121.16c1.78-1.44,3.49-2.97,5.12-4.57l113.5,105.32,2.17-2.33-113.45-105.27c1.56-1.69,3.05-3.45,4.44-5.28l127.73,87.09,1.8-2.63-127.66-87.04c1.31-1.9,2.53-3.87,3.66-5.9l139.01,66.94,1.38-2.87-138.92-66.9c1.03-2.08,1.96-4.22,2.78-6.42l147.1,45.37.94-3.04-146.99-45.34c.72-2.22,1.33-4.49,1.83-6.81l151.85,22.89.47-3.15-151.73-22.87c.39-2.32.66-4.67.81-7.06h153.16v-3.19h-153.03c0-.45.03-.89.03-1.34,0-1.97-.1-3.9-.26-5.83l151.02-22.76-.47-3.15-150.88,22.74c-.31-2.42-.74-4.79-1.29-7.12l145.49-44.88-.94-3.04-145.36,44.84c-.67-2.36-1.46-4.67-2.37-6.91l136.76-65.86-1.38-2.87-136.64,65.8c-1.03-2.25-2.16-4.43-3.41-6.54l125.05-85.26-1.8-2.63-124.94,85.18c-1.36-2.08-2.83-4.09-4.4-6.01l110.62-102.64-2.17-2.34-110.53,102.56c-1.67-1.86-3.44-3.63-5.3-5.31l93.84-117.67-2.49-1.99-93.76,117.57c-1.95-1.6-3.99-3.08-6.1-4.46l75.06-130.02-2.76-1.59-75.01,129.92c-2.18-1.29-4.43-2.45-6.76-3.5l54.73-139.44-2.97-1.16-54.69,139.36c-2.36-.94-4.78-1.75-7.26-2.43l33.27-145.77-3.11-.71-33.26,145.71c-2.48-.56-5.01-1-7.58-1.29l11.16-148.9-3.18-.24-11.16,148.85c-1.57-.11-3.15-.18-4.74-.18-1,0-1.98.03-2.97.08l-11.15-148.75-3.18.24,11.15,148.72c-2.59.23-5.15.58-7.65,1.08l-33.17-145.33-3.11.71,33.17,145.32c-2.52.63-4.99,1.38-7.39,2.27l-54.46-138.75-2.97,1.16,54.46,138.76c-2.38,1.01-4.69,2.16-6.93,3.42l-74.57-129.15-2.76,1.59,74.58,129.18c-2.19,1.36-4.29,2.85-6.31,4.44l-93.07-116.71-2.49,1.99,93.11,116.75c-1.94,1.68-3.79,3.45-5.54,5.33l-109.57-101.67-2.17,2.33,109.62,101.72c-1.65,1.94-3.21,3.97-4.64,6.09l-123.7-84.34-1.8,2.63,123.78,84.39c-1.32,2.16-2.52,4.4-3.61,6.7l-135.18-65.1-1.38,2.87,135.26,65.14c-.96,2.32-1.8,4.7-2.51,7.13l-143.72-44.33-.94,3.04,143.83,44.37c-.59,2.41-1.05,4.87-1.38,7.37l-149.13-22.48-.47,3.15,149.26,22.5c-.17,2.01-.28,4.04-.28,6.1,0,.45.03.89.03,1.34H55.78v3.19h151.38c.16,2.48.45,4.92.86,7.32l-149.99,22.61.47,3.15,150.12-22.63c.52,2.4,1.17,4.75,1.93,7.04l-145.38,44.84.94,3.04,145.51-44.88c.87,2.26,1.85,4.47,2.94,6.61l-137.49,66.21,1.38,2.87,137.61-66.27c1.18,2.08,2.47,4.1,3.85,6.05l-126.46,86.22,1.8,2.63,126.57-86.29c1.46,1.87,3.01,3.66,4.65,5.37l-112.51,104.39,2.17,2.33,112.6-104.48c1.7,1.62,3.48,3.15,5.34,4.6l-95.93,120.3,2.49,1.99,96.01-120.39c1.9,1.34,3.87,2.59,5.9,3.74l-77.11,133.55,2.76,1.59,77.16-133.64c2.06,1.04,4.17,1.99,6.34,2.83l-56.45,143.83,2.97,1.16,56.48-143.91c2.17.73,4.38,1.35,6.64,1.87l-34.44,150.9,3.11.71,34.46-150.97c2.23.4,4.5.7,6.8.89l-11.58,154.55,3.18.24,11.59-154.6c.84.03,1.68.06,2.53.06Z"/>
    <g>
      <polygon class="st7" points="536.8 949.04 505.16 505.39 505.16 949.04 536.8 949.04"/>
      <polygon class="st7" points="591.32 944.07 612.19 940.36 505.16 505.39 570.44 947.77 591.32 944.07"/>
      <polyline class="st7" points="526.27 553.83 505.16 505.39 644.69 931.61 664.6 924.31 684.51 917.02 526.27 553.83"/>
      <polygon class="st7" points="733.3 892.07 751.63 881.41 505.16 505.39 714.97 902.72 733.3 892.07"/>
      <polygon class="st7" points="795.32 848.32 811.51 834.62 505.16 505.39 779.13 862.01 795.32 848.32"/>
      <polygon class="st7" points="848.74 794.41 862.29 778.1 505.16 505.39 835.2 810.72 848.74 794.41"/>
      <polygon class="st7" points="891.93 732 902.42 713.57 505.16 505.39 881.44 750.42 891.93 732"/>
      <polygon class="st7" points="923.56 663.01 930.67 643.03 505.16 505.39 916.45 682.98 923.56 663.01"/>
      <polygon class="st7" points="942.65 589.55 946.16 568.64 505.16 505.39 939.14 610.46 942.65 589.55"/>
      <polygon class="st7" points="948.81 505.39 948.54 505.39 505.16 505.39 948.81 535.09 948.81 505.39"/>
    </g>
    <g>
      <rect class="st2" x="263.66" y="881.91" width="33.77" height="17.33"/>
      <rect class="st2" x="263.66" y="923.92" width="33.77" height="30.73"/>
      <rect class="st2" x="263.66" y="902.92" width="33.77" height="17.33"/>
      <path class="st2" d="M351.77,677.04h154.11c-21.96-39.18-63.86-65.67-111.96-65.67-22.74,0-44.08,5.92-62.6,16.3l108.97-108.97c-43.23-12.17-91.59-1.28-125.6,32.73-17.53,17.53-28.9,38.87-34.15,61.34-5.26-22.48-16.63-43.82-34.15-61.34-34.02-34.02-82.37-44.91-125.6-32.73l108.97,108.97c-18.51-10.38-39.86-16.3-62.6-16.3-48.1,0-90,26.49-111.96,65.67h154.11c-20.43,5.75-39.71,16.66-55.79,32.73-34.02,34.02-44.91,82.37-32.73,125.6l142.87-142.87v185.72h33.77v-185.72l142.87,142.87c12.17-43.23,1.28-91.59-32.73-125.6-16.08-16.08-35.36-26.98-55.79-32.73Z"/>
    </g>
  </g>
</svg>